<svg xmlns:xlink="http://www.w3.org/1999/xlink" xmlns="http://www.w3.org/2000/svg" viewBox="0 0 16 16" role="presentation" width="32"  height="32" ><path fill-rule="evenodd" d="M1.36 1.5a.5.5 0 0 0 0 1h1.036L4.67 10a1.969 1.969 0 0 0 .016 3.938h.735a1.606 1.606 0 0 0 3.07-.157h1.906a1.606 1.606 0 1 0 .075-1H8.418a1.606 1.606 0 0 0-3.024.156h-.707a.969.969 0 1 1 0-1.937h7.758a1 1 0 0 0 .955-.704l1.594-5.139a1 1 0 0 0-.955-1.296H3.854l-.609-2.006a.5.5 0 0 0-.478-.355zM5.716 10 4.157 4.861h9.882L12.445 10zm1.218 2.79a.605.605 0 1 0 0 1.21.605.605 0 0 0 0-1.21m5.023 0a.605.605 0 1 0 0 1.21.605.605 0 0 0 0-1.21" fill="#F9F5EF"></path></svg>