<?xml version="1.0" encoding="UTF-8" standalone="no"?>
<!-- Created with Inkscape (http://www.inkscape.org/) -->

<svg
   version="1.1"
   id="svg2"
   width="793.33331"
   height="1122.6667"
   viewBox="0 0 793.33331 1122.6667"
   sodipodi:docname="Drømtorp_logo_sort.ai"
   xmlns:inkscape="http://www.inkscape.org/namespaces/inkscape"
   xmlns:sodipodi="http://sodipodi.sourceforge.net/DTD/sodipodi-0.dtd"
   xmlns="http://www.w3.org/2000/svg"
   xmlns:svg="http://www.w3.org/2000/svg">
  <defs
     id="defs6" />
  <sodipodi:namedview
     id="namedview4"
     pagecolor="#ffffff"
     bordercolor="#000000"
     borderopacity="0.25"
     inkscape:showpageshadow="2"
     inkscape:pageopacity="0.0"
     inkscape:pagecheckerboard="0"
     inkscape:deskcolor="#d1d1d1" />
  <g
     id="g8"
     inkscape:groupmode="layer"
     inkscape:label="Drømtorp_logo_sort"
     transform="matrix(1.3333333,0,0,-1.3333333,0,1122.6667)">
    <path
       d="m 231.5991,387.3389 c -0.3877,0.9297 -0.6728,1.1113 -1.2793,1.2793 -0.2524,0.0742 -0.5224,0.0742 -0.6582,0.0742 -0.1494,0 -0.2012,0.0508 -0.2012,0.1465 0,0.1386 0.1846,0.1523 0.4375,0.1523 0.8931,0 1.8521,-0.0508 2.4429,-0.0508 0.4199,0 1.2295,0.0508 2.0703,0.0508 0.2027,0 0.3872,-0.0273 0.3872,-0.1523 0,-0.1172 -0.1005,-0.1465 -0.2519,-0.1465 -0.2691,0 -0.5235,-0.0215 -0.6563,-0.1172 -0.1186,-0.0879 -0.1679,-0.2051 -0.1679,-0.3574 0,-0.2207 0.1499,-0.6875 0.3872,-1.2949 l 2.8965,-7.6446 h 0.0669 c 0.7241,1.8496 2.913,7.2735 3.3168,8.3828 0.084,0.2207 0.1524,0.4766 0.1524,0.6211 0,0.1407 -0.0684,0.2715 -0.2197,0.3223 -0.2012,0.0664 -0.4551,0.0879 -0.6724,0.0879 -0.1519,0 -0.2871,0.0137 -0.2871,0.1308 0,0.1407 0.1518,0.168 0.4717,0.168 0.8418,0 1.5493,-0.0508 1.7685,-0.0508 0.2852,0 1.0762,0.0508 1.5825,0.0508 0.2193,0 0.3526,-0.0273 0.3526,-0.1523 0,-0.1172 -0.1006,-0.1465 -0.2686,-0.1465 -0.1679,0 -0.5229,0 -0.8261,-0.2051 -0.2173,-0.1523 -0.4712,-0.4375 -0.9244,-1.5137 -0.6582,-1.5859 -1.1127,-2.4922 -2.021,-4.5664 -1.0781,-2.457 -1.8691,-4.291 -2.2407,-5.1308 -0.4375,-0.9805 -0.5385,-1.25 -0.7744,-1.25 -0.2192,0 -0.3198,0.2324 -0.6391,1.0293 z"
       style="fill:#00adef;fill-opacity:1;fill-rule:nonzero;stroke:none"
       id="path10" />
    <path
       d="m 249.7197,381.1494 c 0,-1.6367 0,-2.9668 -0.0835,-3.6777 -0.0517,-0.4883 -0.1523,-0.7735 -0.4902,-0.8399 -0.1514,-0.0351 -0.3525,-0.0644 -0.6045,-0.0644 -0.2026,0 -0.271,-0.0508 -0.271,-0.1387 0,-0.1172 0.1191,-0.1699 0.3369,-0.1699 0.6739,0 1.7359,0.0527 2.1231,0.0527 0.4531,0 1.5141,-0.0527 2.6255,-0.0527 0.187,0 0.3178,0.0527 0.3178,0.1699 0,0.0879 -0.082,0.1387 -0.2666,0.1387 -0.2524,0 -0.623,0.0293 -0.8589,0.0644 -0.5039,0.0664 -0.6225,0.3731 -0.6743,0.8262 -0.0659,0.7246 -0.0659,2.0547 -0.0659,3.6914 v 2.959 c 0,2.5586 0,3.0352 0.0327,3.5684 0.0332,0.5918 0.169,0.8769 0.6236,0.9648 0.2026,0.0293 0.3364,0.0508 0.5044,0.0508 0.1699,0 0.27,0.0293 0.27,0.168 0,0.1035 -0.1348,0.1308 -0.354,0.1308 -0.6402,0 -1.6338,-0.0508 -2.0542,-0.0508 -0.4873,0 -1.5493,0.0508 -2.1895,0.0508 -0.27,0 -0.4028,-0.0273 -0.4028,-0.1308 0,-0.1387 0.1006,-0.168 0.2685,-0.168 0.2027,0 0.4219,-0.0215 0.6065,-0.0742 0.3706,-0.0801 0.5386,-0.3653 0.5718,-0.9414 0.0346,-0.5332 0.0346,-1.0098 0.0346,-3.5684 z"
       style="fill:#00adef;fill-opacity:1;fill-rule:nonzero;stroke:none"
       id="path12" />
    <path
       d="m 261.7065,384.1084 c 0,2.5586 0,3.0352 -0.0293,3.5684 -0.0366,0.5761 -0.1679,0.8476 -0.7231,0.9648 -0.1392,0.0293 -0.4243,0.0508 -0.6582,0.0508 -0.186,0 -0.2852,0.0293 -0.2852,0.1465 0,0.125 0.1172,0.1523 0.3653,0.1523 0.8955,0 1.9555,-0.0508 2.4267,-0.0508 0.5225,0 1.586,0.0508 2.5952,0.0508 2.105,0 4.919,0 6.753,-1.9141 0.8413,-0.8769 1.6299,-2.2812 1.6299,-4.2832 0,-2.1191 -0.8916,-3.7343 -1.834,-4.6992 -0.7754,-0.789 -2.5259,-1.9804 -5.6426,-1.9804 -1.228,0 -2.7412,0.1972 -3.5854,0.1972 -0.3873,0 -1.4473,-0.0527 -2.1236,-0.0527 -0.2192,0 -0.3354,0.0527 -0.3354,0.1699 0,0.0879 0.0693,0.1387 0.27,0.1387 0.2563,0 0.4531,0.0293 0.6064,0.0644 0.3365,0.0664 0.4243,0.4395 0.4903,0.9278 0.08,0.7109 0.08,2.041 0.08,3.5898 v 2.959 m 2.105,-1.8477 c 0,-1.791 0.022,-3.0839 0.0366,-3.4062 0.0152,-0.416 0.0513,-1.0977 0.1827,-1.2793 0.2197,-0.3203 0.8769,-0.6719 2.2075,-0.6719 1.7178,0 2.8652,0.336 3.8735,1.2129 1.0786,0.9277 1.4141,2.457 1.4141,4.1875 0,2.1426 -0.8916,3.5234 -1.6148,4.2109 -1.5498,1.4825 -3.4677,1.6875 -4.7841,1.6875 -0.336,0 -0.9576,-0.0507 -1.0962,-0.1171 -0.1495,-0.0645 -0.1973,-0.1524 -0.1973,-0.336 -0.022,-0.5761 -0.022,-2.039 -0.022,-3.3691 z"
       style="fill:#00adef;fill-opacity:1;fill-rule:nonzero;stroke:none"
       id="path14" />
    <path
       d="m 281.686,384.1084 c 0,2.5586 0,3.0352 -0.0332,3.5684 -0.0361,0.5761 -0.1679,0.8476 -0.7231,0.9648 -0.1392,0.0293 -0.4243,0.0508 -0.6582,0.0508 -0.1865,0 -0.2852,0.0293 -0.2852,0.1465 0,0.125 0.1172,0.1523 0.3692,0.1523 0.8921,0 1.9555,-0.0508 2.4228,-0.0508 0.541,0 3.8926,0 4.21,0.0235 0.3218,0.0273 0.5923,0.0644 0.7241,0.0937 0.0874,0.0215 0.186,0.0742 0.27,0.0742 0.0874,0 0.103,-0.0742 0.103,-0.1543 0,-0.1171 -0.0839,-0.3222 -0.1357,-1.0957 -0.0181,-0.1699 -0.0513,-0.9082 -0.084,-1.1113 -0.0141,-0.082 -0.0512,-0.1836 -0.1684,-0.1836 -0.1167,0 -0.1529,0.0801 -0.1529,0.2344 0,0.1172 -0.0151,0.4023 -0.0991,0.6055 -0.1201,0.3007 -0.2881,0.5058 -1.1294,0.6074 -0.2851,0.0293 -2.0537,0.0664 -2.3901,0.0664 -0.0879,0 -0.1167,-0.0508 -0.1167,-0.168 v -4.2617 c 0,-0.1172 0.0146,-0.1836 0.1167,-0.1836 0.3691,0 2.3061,0 2.6933,0.0313 0.4063,0.0351 0.6543,0.0878 0.8081,0.2539 0.1172,0.1328 0.1861,0.2207 0.2701,0.2207 0.0664,0 0.1172,-0.0371 0.1172,-0.1387 0,-0.0957 -0.084,-0.3672 -0.1319,-1.2285 -0.0361,-0.336 -0.0693,-1.0098 -0.0693,-1.125 0,-0.1406 0,-0.3223 -0.1499,-0.3223 -0.1201,0 -0.1533,0.0664 -0.1533,0.1543 -0.0147,0.168 -0.0147,0.3867 -0.066,0.6055 -0.0869,0.3359 -0.3217,0.5859 -0.9423,0.6582 -0.3218,0.0293 -1.9878,0.0508 -2.3941,0.0508 -0.084,0 -0.0986,-0.0723 -0.0986,-0.168 v -1.3301 c 0,-0.5762 -0.0181,-2.1269 0,-2.6172 0.0288,-1.1621 0.2998,-1.4101 2.0176,-1.4101 0.4384,0 1.1474,0 1.5859,0.1972 0.439,0.2051 0.6357,0.5625 0.7563,1.25 0.0328,0.1817 0.0699,0.2559 0.1861,0.2559 0.1318,0 0.1318,-0.1387 0.1318,-0.3066 0,-0.3887 -0.1318,-1.5352 -0.2192,-1.8711 -0.1167,-0.4395 -0.2661,-0.4395 -0.9063,-0.4395 -2.5439,0 -3.6728,0.1035 -4.6631,0.1035 -0.3872,0 -1.4506,-0.0527 -2.1269,-0.0527 -0.2158,0 -0.3359,0.0527 -0.3359,0.1699 0,0.0879 0.0688,0.1387 0.27,0.1387 0.2558,0 0.4531,0.0293 0.6064,0.0644 0.3369,0.0664 0.4243,0.4395 0.4903,0.9278 0.0839,0.7109 0.0839,2.041 0.0839,3.5898 z"
       style="fill:#00adef;fill-opacity:1;fill-rule:nonzero;stroke:none"
       id="path16" />
    <path
       d="m 296.7061,384.1084 c 0,2.5586 0,3.0352 -0.0328,3.5684 -0.0371,0.5761 -0.1684,0.8476 -0.7236,0.9648 -0.1357,0.0293 -0.4238,0.0508 -0.6582,0.0508 -0.1826,0 -0.2847,0.0293 -0.2847,0.1465 0,0.125 0.1167,0.1523 0.3692,0.1523 0.895,0 1.9541,-0.0508 2.3056,-0.0508 0.5743,0 1.8555,0.0508 2.376,0.0508 1.0596,0 2.1885,-0.1016 3.0987,-0.7226 0.4707,-0.3223 1.1474,-1.1778 1.1474,-2.3106 0,-1.2422 -0.5264,-2.3887 -2.2256,-3.7715 1.4981,-1.8847 2.6602,-3.3828 3.6543,-4.4297 0.9434,-0.9707 1.6348,-1.0879 1.8867,-1.1386 0.1856,-0.0371 0.3389,-0.0508 0.4707,-0.0508 0.1348,0 0.2051,-0.0508 0.2051,-0.1387 0,-0.1328 -0.1211,-0.1699 -0.3222,-0.1699 h -1.6006 c -0.9424,0 -1.3633,0.0879 -1.8018,0.3223 -0.7226,0.3886 -1.3633,1.1757 -2.3057,2.4785 -0.6728,0.9277 -1.4462,2.0683 -1.6669,2.3242 -0.087,0.1016 -0.1856,0.1172 -0.3067,0.1172 l -1.4619,0.0273 c -0.0879,0 -0.1357,-0.0273 -0.1357,-0.1308 v -0.2344 c 0,-1.5625 0,-2.8926 0.0849,-3.6035 0.0508,-0.4883 0.1533,-0.8614 0.6572,-0.9278 0.2491,-0.0351 0.6221,-0.0644 0.8262,-0.0644 0.1309,0 0.1973,-0.0508 0.1973,-0.1387 0,-0.1172 -0.1162,-0.1699 -0.336,-0.1699 -0.9726,0 -2.2226,0.0527 -2.4746,0.0527 -0.3183,0 -1.3774,-0.0527 -2.0537,-0.0527 -0.2187,0 -0.3359,0.0527 -0.3359,0.1699 0,0.0879 0.0698,0.1387 0.2671,0.1387 0.2558,0 0.457,0.0293 0.6064,0.0644 0.336,0.0664 0.4239,0.4395 0.4898,0.9278 0.084,0.7109 0.084,2.041 0.084,3.5898 v 2.959 m 1.9873,-1.3281 c 0,-0.1836 0.0332,-0.2559 0.1504,-0.3008 0.3544,-0.125 0.8632,-0.1758 1.2792,-0.1758 0.6758,0 0.8946,0.0742 1.1983,0.293 0.5049,0.3652 0.9941,1.1406 0.9941,2.5215 0,2.3906 -1.5849,3.0839 -2.58,3.0839 -0.4161,0 -0.7237,-0.0136 -0.8916,-0.0644 -0.1172,-0.0371 -0.1504,-0.1035 -0.1504,-0.2422 z"
       style="fill:#00adef;fill-opacity:1;fill-rule:nonzero;stroke:none"
       id="path18" />
    <path
       d="m 313.7988,384.1084 c 0,2.5586 0,3.0352 -0.0332,3.5684 -0.0332,0.5761 -0.1679,0.8476 -0.7246,0.9648 -0.1347,0.0293 -0.4199,0.0508 -0.6582,0.0508 -0.1855,0 -0.2851,0.0293 -0.2851,0.1465 0,0.125 0.1171,0.1523 0.3691,0.1523 0.8926,0 1.9531,-0.0508 2.4277,-0.0508 0.5371,0 3.8887,0 4.209,0.0235 0.3223,0.0273 0.5899,0.0644 0.7246,0.0937 0.084,0.0215 0.1817,0.0742 0.2696,0.0742 0.08,0 0.1035,-0.0742 0.1035,-0.1543 0,-0.1171 -0.0879,-0.3222 -0.1387,-1.0957 -0.0156,-0.1699 -0.0527,-0.9082 -0.0801,-1.1113 -0.0234,-0.082 -0.0527,-0.1836 -0.1679,-0.1836 -0.1211,0 -0.1543,0.0801 -0.1543,0.2344 0,0.1172 -0.0196,0.4023 -0.1016,0.6055 -0.1191,0.3007 -0.2871,0.5058 -1.127,0.6074 -0.2871,0.0293 -2.0566,0.0664 -2.3945,0.0664 -0.082,0 -0.1152,-0.0508 -0.1152,-0.168 v -4.2617 c 0,-0.1172 0.0176,-0.1836 0.1152,-0.1836 0.3692,0 2.3086,0 2.6953,0.0313 0.4043,0.0351 0.6582,0.0878 0.8106,0.2539 0.1172,0.1328 0.1836,0.2207 0.2715,0.2207 0.0644,0 0.1152,-0.0371 0.1152,-0.1387 0,-0.0957 -0.0879,-0.3672 -0.1387,-1.2285 -0.0293,-0.336 -0.0644,-1.0098 -0.0644,-1.125 0,-0.1406 0,-0.3223 -0.1504,-0.3223 -0.1211,0 -0.1504,0.0664 -0.1504,0.1543 -0.0215,0.168 -0.0215,0.3867 -0.0684,0.6055 -0.0859,0.3359 -0.3183,0.5859 -0.9433,0.6582 -0.3184,0.0293 -1.9883,0.0508 -2.3946,0.0508 -0.08,0 -0.0976,-0.0723 -0.0976,-0.168 v -1.3301 c 0,-0.5762 -0.0196,-2.1269 0,-2.6172 0.0332,-1.1621 0.3027,-1.4101 2.0215,-1.4101 0.4375,0 1.1425,0 1.582,0.1972 0.4336,0.2051 0.6387,0.5625 0.7559,1.25 0.0371,0.1817 0.0644,0.2559 0.1855,0.2559 0.1367,0 0.1367,-0.1387 0.1367,-0.3066 0,-0.3887 -0.1367,-1.5352 -0.2187,-1.8711 -0.1192,-0.4395 -0.2715,-0.4395 -0.9121,-0.4395 -2.5391,0 -3.6719,0.1035 -4.6661,0.1035 -0.3867,0 -1.4472,-0.0527 -2.1191,-0.0527 -0.2207,0 -0.3359,0.0527 -0.3359,0.1699 0,0.0879 0.0644,0.1387 0.2695,0.1387 0.2519,0 0.4531,0.0293 0.6074,0.0644 0.336,0.0664 0.416,0.4395 0.4863,0.9278 0.084,0.7109 0.084,2.041 0.084,3.5898 z"
       style="fill:#00adef;fill-opacity:1;fill-rule:nonzero;stroke:none"
       id="path20" />
    <path
       d="m 339.043,377.3916 c 0,-0.459 -0.0176,-0.4883 -0.2188,-0.6055 -1.0957,-0.5781 -2.748,-0.7597 -4.0586,-0.7597 -4.1269,0 -7.7812,1.9511 -7.7812,6.5996 0,2.6972 1.3945,4.584 2.9297,5.5117 1.6172,0.9707 3.1132,1.0879 4.5312,1.0879 1.1641,0 2.6426,-0.1973 2.9785,-0.2617 0.3555,-0.0743 0.9473,-0.17 1.3321,-0.1914 0.1992,-0.0137 0.2363,-0.0801 0.2363,-0.1973 0,-0.1895 -0.1172,-0.6582 -0.1172,-2.7617 0,-0.2715 -0.0508,-0.3594 -0.1855,-0.3594 -0.1211,0 -0.1504,0.0879 -0.1719,0.2188 -0.0488,0.3886 -0.1309,0.9296 -0.5703,1.4042 -0.5039,0.5333 -1.8535,1.3086 -3.7578,1.3086 -0.9239,0 -2.1563,-0.0664 -3.3321,-1.0468 -0.9433,-0.7871 -1.5488,-2.0528 -1.5488,-4.1211 0,-3.6172 2.3086,-6.3301 5.8613,-6.3301 0.4395,0 1.0274,0 1.4336,0.1836 0.2481,0.1172 0.3164,0.3359 0.3164,0.6211 v 1.5859 c 0,0.8399 0,1.4844 -0.0176,1.9883 -0.0156,0.5703 -0.1679,0.8398 -0.7226,0.957 -0.1328,0.0371 -0.4219,0.0508 -0.6582,0.0508 -0.1504,0 -0.25,0.0293 -0.25,0.1328 0,0.1387 0.1172,0.168 0.3515,0.168 0.877,0 1.9375,-0.0508 2.4415,-0.0508 0.5214,0 1.4179,0.0508 1.9726,0.0508 0.2188,0 0.3379,-0.0293 0.3379,-0.168 0,-0.1035 -0.1035,-0.1328 -0.2207,-0.1328 -0.1348,0 -0.2559,-0.0137 -0.4531,-0.0508 -0.4571,-0.0879 -0.625,-0.373 -0.6426,-0.957 -0.0156,-0.5039 -0.0156,-1.1836 -0.0156,-2.0254 z"
       style="fill:#00adef;fill-opacity:1;fill-rule:nonzero;stroke:none"
       id="path22" />
    <path
       d="m 348.7949,380.6592 c -0.0879,0 -0.1191,-0.0371 -0.1543,-0.1387 l -0.9101,-2.4043 c -0.17,-0.4238 -0.252,-0.8262 -0.252,-1.0312 0,-0.2989 0.1524,-0.5176 0.6719,-0.5176 h 0.2559 c 0.2011,0 0.248,-0.0371 0.248,-0.1387 0,-0.1328 -0.0977,-0.1699 -0.2852,-0.1699 -0.5371,0 -1.2636,0.0527 -1.7812,0.0527 -0.1875,0 -1.1133,-0.0527 -1.9902,-0.0527 -0.2188,0 -0.3204,0.0371 -0.3204,0.1699 0,0.1016 0.0704,0.1387 0.2032,0.1387 0.1562,0 0.3886,0.0137 0.5195,0.0293 0.7754,0.1015 1.0977,0.6797 1.4336,1.5195 l 4.2285,10.5762 c 0.2012,0.4902 0.3027,0.6719 0.4707,0.6719 0.1524,0 0.252,-0.1524 0.4199,-0.5411 0.4063,-0.9277 3.0996,-7.7968 4.1778,-10.3554 0.6386,-1.5137 1.1289,-1.7481 1.4824,-1.836 0.25,-0.0507 0.5059,-0.0644 0.707,-0.0644 0.1348,0 0.2188,-0.0156 0.2188,-0.1387 0,-0.1328 -0.1504,-0.1699 -0.7735,-0.1699 -0.6093,0 -1.8398,0 -3.1855,0.0371 -0.3027,0.0156 -0.5039,0.0156 -0.5039,0.1328 0,0.1016 0.0664,0.1387 0.2344,0.1524 0.1171,0.0371 0.2382,0.1835 0.1543,0.3886 l -1.3497,3.5723 c -0.0332,0.0801 -0.0839,0.1172 -0.1679,0.1172 h -3.752 m 3.4336,0.8418 c 0.082,0 0.0996,0.0508 0.082,0.1015 l -1.5156,4.1582 c -0.0117,0.0664 -0.0351,0.1543 -0.082,0.1543 -0.0508,0 -0.0859,-0.0879 -0.1035,-0.1543 l -1.5449,-4.1445 c -0.0215,-0.0644 0,-0.1152 0.0664,-0.1152 h 3.0976 m -2.916,9.6338 c 0,0.7734 0.9941,1.4824 2.3086,1.4824 0.9766,0 1.584,-0.4082 1.6016,-0.9785 0,-0.9434 -1.3145,-1.5147 -2.4122,-1.5147 -0.9238,0 -1.498,0.4326 -1.498,1.0108 m 1.8711,-0.5918 c 0.5566,0 1.0078,0.4004 1.0078,0.875 0,0.4023 -0.2832,0.7754 -0.8906,0.7754 -0.3867,0 -0.957,-0.2559 -0.957,-0.8262 0,-0.5039 0.4394,-0.8242 0.8398,-0.8242 z"
       style="fill:#00adef;fill-opacity:1;fill-rule:nonzero;stroke:none"
       id="path24" />
    <path
       d="m 364.2852,384.1084 c 0,2.5586 0,3.0352 -0.0332,3.5684 -0.0352,0.5761 -0.168,0.8476 -0.7227,0.9648 -0.1387,0.0293 -0.4238,0.0508 -0.6582,0.0508 -0.1856,0 -0.2852,0.0293 -0.2852,0.1465 0,0.125 0.1172,0.1523 0.3692,0.1523 0.8926,0 1.9551,-0.0508 2.4219,-0.0508 0.5429,0 3.8925,0 4.2109,0.0235 0.3223,0.0273 0.5937,0.0644 0.7226,0.0937 0.0879,0.0215 0.1875,0.0742 0.2715,0.0742 0.0879,0 0.1035,-0.0742 0.1035,-0.1543 0,-0.1171 -0.0859,-0.3222 -0.1347,-1.0957 -0.0195,-0.1699 -0.0528,-0.9082 -0.086,-1.1113 -0.0156,-0.082 -0.0507,-0.1836 -0.1679,-0.1836 -0.1153,0 -0.1543,0.0801 -0.1543,0.2344 0,0.1172 -0.0137,0.4023 -0.0977,0.6055 -0.1211,0.3007 -0.289,0.5058 -1.1289,0.6074 -0.2851,0.0293 -2.0547,0.0664 -2.3906,0.0664 -0.0879,0 -0.1172,-0.0508 -0.1172,-0.168 v -4.2617 c 0,-0.1172 0.0156,-0.1836 0.1172,-0.1836 0.3691,0 2.3066,0 2.6934,0.0313 0.4062,0.0351 0.6542,0.0878 0.8085,0.2539 0.1153,0.1328 0.1856,0.2207 0.2696,0.2207 0.0664,0 0.1172,-0.0371 0.1172,-0.1387 0,-0.0957 -0.084,-0.3672 -0.1328,-1.2285 -0.0352,-0.336 -0.0684,-1.0098 -0.0684,-1.125 0,-0.1406 0,-0.3223 -0.1504,-0.3223 -0.1211,0 -0.1523,0.0664 -0.1523,0.1543 -0.0157,0.168 -0.0157,0.3867 -0.0664,0.6055 -0.0879,0.3359 -0.3204,0.5859 -0.9434,0.6582 -0.3223,0.0293 -1.9863,0.0508 -2.3926,0.0508 -0.084,0 -0.0996,-0.0723 -0.0996,-0.168 v -1.3301 c 0,-0.5762 -0.0176,-2.1269 0,-2.6172 0.0293,-1.1621 0.3008,-1.4101 2.0176,-1.4101 0.4394,0 1.1465,0 1.5859,0.1972 0.4375,0.2051 0.6367,0.5625 0.7559,1.25 0.0332,0.1817 0.0703,0.2559 0.1875,0.2559 0.1328,0 0.1328,-0.1387 0.1328,-0.3066 0,-0.3887 -0.1328,-1.5352 -0.2207,-1.8711 -0.1172,-0.4395 -0.2676,-0.4395 -0.9063,-0.4395 -2.5449,0 -3.6718,0.1035 -4.664,0.1035 -0.3867,0 -1.4492,-0.0527 -2.127,-0.0527 -0.2148,0 -0.3359,0.0527 -0.3359,0.1699 0,0.0879 0.0703,0.1387 0.2715,0.1387 0.2558,0 0.4531,0.0293 0.6074,0.0644 0.3359,0.0664 0.4219,0.4395 0.4883,0.9278 0.084,0.7109 0.084,2.041 0.084,3.5898 z"
       style="fill:#00adef;fill-opacity:1;fill-rule:nonzero;stroke:none"
       id="path26" />
    <path
       d="m 380.248,378.5557 c 0.0333,-1.3164 0.254,-1.7559 0.5899,-1.8711 0.2871,-0.1035 0.6055,-0.1172 0.8769,-0.1172 0.1856,0 0.2832,-0.0371 0.2832,-0.1387 0,-0.1328 -0.1484,-0.1699 -0.3867,-0.1699 -1.0918,0 -1.7675,0.0527 -2.0859,0.0527 -0.1504,0 -0.9434,-0.0527 -1.8164,-0.0527 -0.2207,0 -0.3731,0.0234 -0.3731,0.1699 0,0.1016 0.1016,0.1387 0.2696,0.1387 0.2187,0 0.5195,0.0137 0.7558,0.0801 0.4395,0.1386 0.5098,0.6289 0.5235,2.0898 l 0.1543,9.9688 c 0,0.3378 0.0468,0.5703 0.2187,0.5703 0.1836,0 0.336,-0.2188 0.6211,-0.5176 0.2012,-0.2207 2.7637,-2.9688 5.2188,-5.4082 1.1484,-1.1406 3.4218,-3.5684 3.705,-3.8379 h 0.086 l -0.168,7.5644 c -0.0195,1.0235 -0.168,1.3458 -0.5762,1.5137 -0.25,0.1016 -0.6582,0.1016 -0.8906,0.1016 -0.2012,0 -0.2695,0.0508 -0.2695,0.1465 0,0.1386 0.1855,0.1523 0.4375,0.1523 0.8769,0 1.6855,-0.0508 2.039,-0.0508 0.1836,0 0.8262,0.0508 1.6524,0.0508 0.2187,0 0.3867,-0.0137 0.3867,-0.1523 0,-0.0957 -0.1016,-0.1465 -0.3066,-0.1465 -0.168,0 -0.2989,0 -0.5039,-0.0508 -0.4707,-0.1387 -0.6055,-0.4902 -0.6211,-1.4316 l -0.1856,-10.6289 c 0,-0.3731 -0.0703,-0.5176 -0.2207,-0.5176 -0.1855,0 -0.3867,0.1816 -0.5723,0.3652 -1.0605,1.0156 -3.2168,3.2149 -4.9668,4.9551 -1.8398,1.8183 -3.7031,3.9238 -4.0097,4.2383 h -0.0508 z"
       style="fill:#00adef;fill-opacity:1;fill-rule:nonzero;stroke:none"
       id="path28" />
    <path
       d="m 399.6328,384.1084 c 0,2.5586 0,3.0352 -0.0332,3.5684 -0.0371,0.5761 -0.168,0.8476 -0.7246,0.9648 -0.1387,0.0293 -0.4238,0.0508 -0.6582,0.0508 -0.1855,0 -0.2832,0.0293 -0.2832,0.1465 0,0.125 0.1152,0.1523 0.3691,0.1523 0.8907,0 1.9532,-0.0508 2.4219,-0.0508 0.5254,0 1.5859,0.0508 2.5957,0.0508 2.1035,0 4.918,0 6.7539,-1.9141 0.8379,-0.8769 1.6328,-2.2812 1.6328,-4.2832 0,-2.1191 -0.8965,-3.7343 -1.8398,-4.6992 -0.7734,-0.789 -2.5195,-1.9804 -5.6387,-1.9804 -1.2305,0 -2.7441,0.1972 -3.584,0.1972 -0.3886,0 -1.4511,-0.0527 -2.123,-0.0527 -0.2188,0 -0.3399,0.0527 -0.3399,0.1699 0,0.0879 0.0684,0.1387 0.2696,0.1387 0.2558,0 0.457,0.0293 0.6074,0.0644 0.3359,0.0664 0.4238,0.4395 0.4883,0.9278 0.0859,0.7109 0.0859,2.041 0.0859,3.5898 v 2.959 m 2.1035,-1.8477 c 0,-1.791 0.0196,-3.0839 0.0332,-3.4062 0.0176,-0.416 0.0508,-1.0977 0.1856,-1.2793 0.2168,-0.3203 0.875,-0.6719 2.2051,-0.6719 1.7168,0 2.8652,0.336 3.873,1.2129 1.082,0.9277 1.418,2.457 1.418,4.1875 0,2.1426 -0.8946,3.5234 -1.6192,4.2109 -1.5488,1.4825 -3.4687,1.6875 -4.7832,1.6875 -0.3359,0 -0.957,-0.0507 -1.0937,-0.1171 -0.1485,-0.0645 -0.1992,-0.1524 -0.1992,-0.336 -0.0196,-0.5761 -0.0196,-2.039 -0.0196,-3.3691 z"
       style="fill:#00adef;fill-opacity:1;fill-rule:nonzero;stroke:none"
       id="path30" />
    <path
       d="m 419.6074,384.1084 c 0,2.5586 0,3.0352 -0.0332,3.5684 -0.0351,0.5761 -0.1679,0.8476 -0.7246,0.9648 -0.1328,0.0293 -0.4219,0.0508 -0.6562,0.0508 -0.1817,0 -0.2852,0.0293 -0.2852,0.1465 0,0.125 0.1172,0.1523 0.3691,0.1523 0.8946,0 1.9551,-0.0508 2.4239,-0.0508 0.539,0 3.8926,0 4.209,0.0235 0.3222,0.0273 0.5918,0.0644 0.7246,0.0937 0.0859,0.0215 0.1894,0.0742 0.2695,0.0742 0.0879,0 0.1016,-0.0742 0.1016,-0.1543 0,-0.1171 -0.084,-0.3222 -0.1348,-1.0957 -0.0176,-0.1699 -0.0469,-0.9082 -0.084,-1.1113 -0.0137,-0.082 -0.0508,-0.1836 -0.168,-0.1836 -0.1171,0 -0.1523,0.0801 -0.1523,0.2344 0,0.1172 -0.0156,0.4023 -0.0996,0.6055 -0.1211,0.3007 -0.2891,0.5058 -1.1289,0.6074 -0.2852,0.0293 -2.0528,0.0664 -2.3906,0.0664 -0.084,0 -0.1172,-0.0508 -0.1172,-0.168 v -4.2617 c 0,-0.1172 0.0156,-0.1836 0.1172,-0.1836 0.373,0 2.3066,0 2.6933,0.0313 0.4063,0.0351 0.6563,0.0878 0.8086,0.2539 0.1172,0.1328 0.1856,0.2207 0.2695,0.2207 0.0664,0 0.1172,-0.0371 0.1172,-0.1387 0,-0.0957 -0.082,-0.3672 -0.1308,-1.2285 -0.0391,-0.336 -0.0703,-1.0098 -0.0703,-1.125 0,-0.1406 0,-0.3223 -0.1485,-0.3223 -0.1191,0 -0.1543,0.0664 -0.1543,0.1543 -0.0136,0.168 -0.0136,0.3867 -0.0664,0.6055 -0.0879,0.3359 -0.3222,0.5859 -0.9414,0.6582 -0.3223,0.0293 -1.9902,0.0508 -2.3906,0.0508 -0.0879,0 -0.1035,-0.0723 -0.1035,-0.168 v -1.3301 c 0,-0.5762 -0.0176,-2.1269 0,-2.6172 0.0332,-1.1621 0.3008,-1.4101 2.0175,-1.4101 0.4375,0 1.1485,0 1.586,0.1972 0.4394,0.2051 0.6406,0.5625 0.7558,1.25 0.0332,0.1817 0.0704,0.2559 0.1875,0.2559 0.1309,0 0.1309,-0.1387 0.1309,-0.3066 0,-0.3887 -0.1309,-1.5352 -0.2148,-1.8711 -0.1211,-0.4395 -0.2715,-0.4395 -0.9102,-0.4395 -2.543,0 -3.668,0.1035 -4.6621,0.1035 -0.3887,0 -1.4492,-0.0527 -2.125,-0.0527 -0.2188,0 -0.3359,0.0527 -0.3359,0.1699 0,0.0879 0.0664,0.1387 0.2675,0.1387 0.2539,0 0.4551,0.0293 0.6055,0.0644 0.3359,0.0664 0.4238,0.4395 0.4902,0.9278 0.084,0.7109 0.084,2.041 0.084,3.5898 z"
       style="fill:#00adef;fill-opacity:1;fill-rule:nonzero;stroke:none"
       id="path32" />
    <path
       d="m 443.1328,376.4639 c -0.2715,0.1172 -0.3203,0.205 -0.3203,0.5703 0,0.9277 0.0664,1.9375 0.0859,2.207 0.0137,0.2559 0.0645,0.4395 0.2012,0.4395 0.1484,0 0.168,-0.1543 0.168,-0.2852 0,-0.2187 0.0683,-0.5703 0.1484,-0.8633 0.3731,-1.2422 1.3672,-1.6953 2.4121,-1.6953 1.5137,0 2.2559,1.0235 2.2559,1.9141 0,0.8261 -0.252,1.623 -1.6485,2.6972 l -0.7753,0.6075 c -1.8555,1.4472 -2.4922,2.623 -2.4922,3.9902 0,1.8496 1.5508,3.1797 3.8886,3.1797 1.0977,0 1.8008,-0.168 2.2403,-0.2852 0.1504,-0.0293 0.2383,-0.08 0.2383,-0.1972 0,-0.2188 -0.0704,-0.709 -0.0704,-2.0235 0,-0.373 -0.0507,-0.5058 -0.1855,-0.5058 -0.1172,0 -0.168,0.1035 -0.168,0.3007 0,0.1524 -0.0859,0.6797 -0.4394,1.1172 -0.252,0.3145 -0.7383,0.8184 -1.834,0.8184 -1.2481,0 -2.0039,-0.7227 -2.0039,-1.7305 0,-0.7754 0.3867,-1.3593 1.7832,-2.4277 l 0.4726,-0.3516 c 2.0215,-1.5625 2.7618,-2.6953 2.7618,-4.2968 0,-0.9727 -0.3692,-2.1348 -1.5821,-2.9239 -0.8398,-0.541 -1.7832,-0.6933 -2.6797,-0.6933 -0.9746,0 -1.7343,0.1172 -2.457,0.4375 z"
       style="fill:#00adef;fill-opacity:1;fill-rule:nonzero;stroke:none"
       id="path34" />
    <path
       d="m 460.293,383.3701 h 0.084 c 0.5742,0.6231 3.0293,3.1289 3.5195,3.707 0.4707,0.5547 0.8398,0.9727 0.8398,1.2579 0,0.1894 -0.0644,0.3066 -0.2324,0.3359 -0.1543,0.0352 -0.2187,0.0723 -0.2187,0.168 0,0.125 0.082,0.1523 0.2695,0.1523 0.3516,0 1.2793,-0.0508 1.7324,-0.0508 0.5215,0 1.4473,0.0508 1.9727,0.0508 0.1679,0 0.2851,-0.0273 0.2851,-0.1523 0,-0.1172 -0.0859,-0.1465 -0.2558,-0.1465 -0.2325,0 -0.6543,-0.0742 -0.9707,-0.1895 -0.5274,-0.1972 -1.0977,-0.5566 -1.8204,-1.2578 -0.5234,-0.5117 -3.0664,-3.0332 -3.6406,-3.6387 0.6074,-0.791 3.9102,-4.3496 4.5645,-4.9707 0.7422,-0.7089 1.5019,-1.4628 2.4082,-1.8203 0.5039,-0.1972 0.8418,-0.248 1.0449,-0.248 0.1172,0 0.2207,-0.0371 0.2207,-0.1387 0,-0.1172 -0.0879,-0.1699 -0.4062,-0.1699 h -1.4668 c -0.502,0 -0.8067,0 -1.1602,0.0371 -0.9062,0.0801 -1.3633,0.4531 -2.0879,1.0957 -0.7422,0.6582 -4.0586,4.5469 -4.4101,5.0371 l -0.1875,0.2481 h -0.084 v -1.5274 c 0,-1.5488 0,-2.8789 0.0527,-3.6113 0.0313,-0.4668 0.1816,-0.8399 0.6055,-0.9063 0.2324,-0.0351 0.6074,-0.0644 0.8261,-0.0644 0.1329,0 0.2149,-0.0508 0.2149,-0.1387 0,-0.1172 -0.1348,-0.1699 -0.3184,-0.1699 -0.9414,0 -2.0019,0.0527 -2.4258,0.0527 -0.3867,0 -1.4472,-0.0527 -2.1191,-0.0527 -0.2187,0 -0.3359,0.0527 -0.3359,0.1699 0,0.0879 0.0644,0.1387 0.2656,0.1387 0.2539,0 0.457,0.0293 0.6074,0.0644 0.336,0.0664 0.4199,0.4395 0.4863,0.9278 0.086,0.7109 0.086,2.041 0.086,3.5898 v 2.959 c 0,2.5586 0,3.0352 -0.0352,3.5684 -0.0332,0.5761 -0.1679,0.8476 -0.7226,0.9648 -0.1328,0.0293 -0.4219,0.0508 -0.6582,0.0508 -0.1836,0 -0.2852,0.0293 -0.2852,0.1465 0,0.125 0.1172,0.1523 0.3731,0.1523 0.8906,0 1.9511,-0.0508 2.3535,-0.0508 0.4082,0 1.4687,0.0508 2.039,0.0508 0.2383,0 0.3536,-0.0273 0.3536,-0.1523 0,-0.1172 -0.0977,-0.1465 -0.2364,-0.1465 -0.1679,0 -0.2676,-0.0215 -0.4687,-0.0508 -0.4571,-0.0879 -0.5918,-0.373 -0.625,-0.9648 -0.0332,-0.5332 -0.0332,-1.0098 -0.0332,-3.5684 z"
       style="fill:#00adef;fill-opacity:1;fill-rule:nonzero;stroke:none"
       id="path36" />
    <path
       d="m 473.7637,382.626 c 0,2.8789 1.9004,6.5996 6.9531,6.5996 4.1934,0 6.8027,-2.4414 6.8027,-6.293 0,-3.8594 -2.6894,-6.9062 -6.9687,-6.9062 -4.836,0 -6.7871,3.6172 -6.7871,6.5996 m 11.4023,-0.3223 c 0,3.7793 -2.1738,6.1192 -4.9336,6.1192 -1.9375,0 -4.1445,-1.084 -4.1445,-5.2696 0,-3.5097 1.9375,-6.2871 5.168,-6.2871 1.1796,0 3.9101,0.5781 3.9101,5.4375 z"
       style="fill:#00adef;fill-opacity:1;fill-rule:nonzero;stroke:none"
       id="path38" />
    <path
       d="m 497.5254,381.1494 c 0,-2.1562 0,-3.3183 0.3574,-3.625 0.2871,-0.248 0.7246,-0.373 2.0371,-0.373 0.8946,0 1.5489,0.0215 1.9688,0.4746 0.2051,0.2187 0.4062,0.6875 0.4394,1.0097 0.0137,0.1524 0.0508,0.2559 0.1836,0.2559 0.1192,0 0.1367,-0.0879 0.1367,-0.2852 0,-0.1914 -0.1152,-1.455 -0.2558,-1.9375 -0.0977,-0.373 -0.1817,-0.4609 -1.0586,-0.4609 -2.4258,0 -3.5391,0.1035 -4.9004,0.1035 -0.3887,0 -1.4473,-0.0527 -2.1231,-0.0527 -0.2187,0 -0.3378,0.0527 -0.3378,0.1699 0,0.0879 0.0703,0.1387 0.2714,0.1387 0.2559,0 0.4532,0.0293 0.6055,0.0644 0.3359,0.0664 0.4238,0.4395 0.4902,0.9278 0.0801,0.7109 0.0801,2.041 0.0801,3.5898 v 2.959 c 0,2.5586 0,3.0352 -0.0273,3.5684 -0.0371,0.5761 -0.168,0.8476 -0.7246,0.9648 -0.1387,0.0293 -0.3399,0.0508 -0.5567,0.0508 -0.1875,0 -0.289,0.0293 -0.289,0.1465 0,0.125 0.1191,0.1523 0.3691,0.1523 0.7949,0 1.8535,-0.0508 2.3106,-0.0508 0.4023,0 1.6308,0.0508 2.2871,0.0508 0.2382,0 0.3554,-0.0273 0.3554,-0.1523 0,-0.1172 -0.0996,-0.1465 -0.3027,-0.1465 -0.1836,0 -0.4531,-0.0215 -0.6582,-0.0508 -0.4531,-0.0879 -0.5898,-0.373 -0.6211,-0.9648 -0.0371,-0.5332 -0.0371,-1.0098 -0.0371,-3.5684 z"
       style="fill:#00adef;fill-opacity:1;fill-rule:nonzero;stroke:none"
       id="path40" />
    <path
       d="m 509.9883,384.1084 c 0,2.5586 0,3.0352 -0.0293,3.5684 -0.0371,0.5761 -0.168,0.8476 -0.7246,0.9648 -0.1387,0.0293 -0.4239,0.0508 -0.6563,0.0508 -0.1875,0 -0.289,0.0293 -0.289,0.1465 0,0.125 0.1211,0.1523 0.3691,0.1523 0.8945,0 1.9531,-0.0508 2.4258,-0.0508 0.541,0 3.8887,0 4.2109,0.0235 0.3203,0.0273 0.5899,0.0644 0.7227,0.0937 0.0879,0.0215 0.1855,0.0742 0.2715,0.0742 0.082,0 0.0996,-0.0742 0.0996,-0.1543 0,-0.1171 -0.086,-0.3222 -0.1348,-1.0957 -0.0176,-0.1699 -0.0508,-0.9082 -0.082,-1.1113 -0.0176,-0.082 -0.0508,-0.1836 -0.1699,-0.1836 -0.1172,0 -0.1524,0.0801 -0.1524,0.2344 0,0.1172 -0.0156,0.4023 -0.1035,0.6055 -0.1152,0.3007 -0.2832,0.5058 -1.125,0.6074 -0.2852,0.0293 -2.0527,0.0664 -2.3906,0.0664 -0.0879,0 -0.1153,-0.0508 -0.1153,-0.168 v -4.2617 c 0,-0.1172 0.0137,-0.1836 0.1153,-0.1836 0.3691,0 2.3066,0 2.6953,0.0313 0.4043,0.0351 0.6523,0.0878 0.8066,0.2539 0.1172,0.1328 0.1817,0.2207 0.2696,0.2207 0.0664,0 0.1191,-0.0371 0.1191,-0.1387 0,-0.0957 -0.0859,-0.3672 -0.1367,-1.2285 -0.0313,-0.336 -0.0703,-1.0098 -0.0703,-1.125 0,-0.1406 0,-0.3223 -0.1485,-0.3223 -0.1172,0 -0.1504,0.0664 -0.1504,0.1543 -0.0175,0.168 -0.0175,0.3867 -0.0644,0.6055 -0.0879,0.3359 -0.3223,0.5859 -0.9473,0.6582 -0.3183,0.0293 -1.9863,0.0508 -2.3906,0.0508 -0.084,0 -0.0977,-0.0723 -0.0977,-0.168 v -1.3301 c 0,-0.5762 -0.0214,-2.1269 0,-2.6172 0.0274,-1.1621 0.2989,-1.4101 2.0176,-1.4101 0.4375,0 1.1465,0 1.586,0.1972 0.4355,0.2051 0.6347,0.5625 0.7519,1.25 0.0371,0.1817 0.0703,0.2559 0.1895,0.2559 0.1308,0 0.1308,-0.1387 0.1308,-0.3066 0,-0.3887 -0.1308,-1.5352 -0.2187,-1.8711 -0.1172,-0.4395 -0.2696,-0.4395 -0.9063,-0.4395 -2.543,0 -3.6719,0.1035 -4.666,0.1035 -0.3887,0 -1.4473,-0.0527 -2.123,-0.0527 -0.2188,0 -0.336,0.0527 -0.336,0.1699 0,0.0879 0.0684,0.1387 0.2695,0.1387 0.252,0 0.4532,0.0293 0.6075,0.0644 0.3359,0.0664 0.4199,0.4395 0.4883,0.9278 0.082,0.7109 0.082,2.041 0.082,3.5898 z"
       style="fill:#00adef;fill-opacity:1;fill-rule:nonzero;stroke:none"
       id="path42" />
    <path
       d="m 231.5991,387.3389 c -0.3877,0.9297 -0.6728,1.1113 -1.2793,1.2793 -0.2524,0.0742 -0.5224,0.0742 -0.6582,0.0742 -0.1494,0 -0.2012,0.0508 -0.2012,0.1465 0,0.1386 0.1846,0.1523 0.4375,0.1523 0.8931,0 1.8521,-0.0508 2.4429,-0.0508 0.4199,0 1.2295,0.0508 2.0703,0.0508 0.2027,0 0.3872,-0.0273 0.3872,-0.1523 0,-0.1172 -0.1005,-0.1465 -0.2519,-0.1465 -0.2691,0 -0.5235,-0.0215 -0.6563,-0.1172 -0.1186,-0.0879 -0.1679,-0.2051 -0.1679,-0.3574 0,-0.2207 0.1499,-0.6875 0.3872,-1.2949 l 2.8965,-7.6446 h 0.0669 c 0.7241,1.8496 2.913,7.2735 3.3168,8.3828 0.084,0.2207 0.1524,0.4766 0.1524,0.6211 0,0.1407 -0.0684,0.2715 -0.2197,0.3223 -0.2012,0.0664 -0.4551,0.0879 -0.6724,0.0879 -0.1519,0 -0.2871,0.0137 -0.2871,0.1308 0,0.1407 0.1518,0.168 0.4717,0.168 0.8418,0 1.5493,-0.0508 1.7685,-0.0508 0.2852,0 1.0762,0.0508 1.5825,0.0508 0.2193,0 0.3526,-0.0273 0.3526,-0.1523 0,-0.1172 -0.1006,-0.1465 -0.2686,-0.1465 -0.1679,0 -0.5229,0 -0.8261,-0.2051 -0.2173,-0.1523 -0.4712,-0.4375 -0.9244,-1.5137 -0.6582,-1.5859 -1.1127,-2.4922 -2.021,-4.5664 -1.0781,-2.457 -1.8691,-4.291 -2.2407,-5.1308 -0.4375,-0.9805 -0.5385,-1.25 -0.7744,-1.25 -0.2192,0 -0.3198,0.2324 -0.6391,1.0293 z"
       style="fill:#231f20;fill-opacity:1;fill-rule:nonzero;stroke:none"
       id="path44" />
    <path
       d="m 249.7197,381.1494 c 0,-1.6367 0,-2.9668 -0.0835,-3.6777 -0.0517,-0.4883 -0.1523,-0.7735 -0.4902,-0.8399 -0.1514,-0.0351 -0.3525,-0.0644 -0.6045,-0.0644 -0.2026,0 -0.271,-0.0508 -0.271,-0.1387 0,-0.1172 0.1191,-0.1699 0.3369,-0.1699 0.6739,0 1.7359,0.0527 2.1231,0.0527 0.4531,0 1.5141,-0.0527 2.6255,-0.0527 0.187,0 0.3178,0.0527 0.3178,0.1699 0,0.0879 -0.082,0.1387 -0.2666,0.1387 -0.2524,0 -0.623,0.0293 -0.8589,0.0644 -0.5039,0.0664 -0.6225,0.3731 -0.6743,0.8262 -0.0659,0.7246 -0.0659,2.0547 -0.0659,3.6914 v 2.959 c 0,2.5586 0,3.0352 0.0327,3.5684 0.0332,0.5918 0.169,0.8769 0.6236,0.9648 0.2026,0.0293 0.3364,0.0508 0.5044,0.0508 0.1699,0 0.27,0.0293 0.27,0.168 0,0.1035 -0.1348,0.1308 -0.354,0.1308 -0.6402,0 -1.6338,-0.0508 -2.0542,-0.0508 -0.4873,0 -1.5493,0.0508 -2.1895,0.0508 -0.27,0 -0.4028,-0.0273 -0.4028,-0.1308 0,-0.1387 0.1006,-0.168 0.2685,-0.168 0.2027,0 0.4219,-0.0215 0.6065,-0.0742 0.3706,-0.0801 0.5386,-0.3653 0.5718,-0.9414 0.0346,-0.5332 0.0346,-1.0098 0.0346,-3.5684 z"
       style="fill:#231f20;fill-opacity:1;fill-rule:nonzero;stroke:none"
       id="path46" />
    <path
       d="m 261.7065,384.1084 c 0,2.5586 0,3.0352 -0.0293,3.5684 -0.0366,0.5761 -0.1679,0.8476 -0.7231,0.9648 -0.1392,0.0293 -0.4243,0.0508 -0.6582,0.0508 -0.186,0 -0.2852,0.0293 -0.2852,0.1465 0,0.125 0.1172,0.1523 0.3653,0.1523 0.8955,0 1.9555,-0.0508 2.4267,-0.0508 0.5225,0 1.586,0.0508 2.5952,0.0508 2.105,0 4.919,0 6.753,-1.9141 0.8413,-0.8769 1.6299,-2.2812 1.6299,-4.2832 0,-2.1191 -0.8916,-3.7343 -1.834,-4.6992 -0.7754,-0.789 -2.5259,-1.9804 -5.6426,-1.9804 -1.228,0 -2.7412,0.1972 -3.5854,0.1972 -0.3873,0 -1.4473,-0.0527 -2.1236,-0.0527 -0.2192,0 -0.3354,0.0527 -0.3354,0.1699 0,0.0879 0.0693,0.1387 0.27,0.1387 0.2563,0 0.4531,0.0293 0.6064,0.0644 0.3365,0.0664 0.4243,0.4395 0.4903,0.9278 0.08,0.7109 0.08,2.041 0.08,3.5898 v 2.959 m 2.105,-1.8477 c 0,-1.791 0.022,-3.0839 0.0366,-3.4062 0.0152,-0.416 0.0513,-1.0977 0.1827,-1.2793 0.2197,-0.3203 0.8769,-0.6719 2.2075,-0.6719 1.7178,0 2.8652,0.336 3.8735,1.2129 1.0786,0.9277 1.4141,2.457 1.4141,4.1875 0,2.1426 -0.8916,3.5234 -1.6148,4.2109 -1.5498,1.4825 -3.4677,1.6875 -4.7841,1.6875 -0.336,0 -0.9576,-0.0507 -1.0962,-0.1171 -0.1495,-0.0645 -0.1973,-0.1524 -0.1973,-0.336 -0.022,-0.5761 -0.022,-2.039 -0.022,-3.3691 z"
       style="fill:#231f20;fill-opacity:1;fill-rule:nonzero;stroke:none"
       id="path48" />
    <path
       d="m 281.686,384.1084 c 0,2.5586 0,3.0352 -0.0332,3.5684 -0.0361,0.5761 -0.1679,0.8476 -0.7231,0.9648 -0.1392,0.0293 -0.4243,0.0508 -0.6582,0.0508 -0.1865,0 -0.2852,0.0293 -0.2852,0.1465 0,0.125 0.1172,0.1523 0.3692,0.1523 0.8921,0 1.9555,-0.0508 2.4228,-0.0508 0.541,0 3.8926,0 4.21,0.0235 0.3218,0.0273 0.5923,0.0644 0.7241,0.0937 0.0874,0.0215 0.186,0.0742 0.27,0.0742 0.0874,0 0.103,-0.0742 0.103,-0.1543 0,-0.1171 -0.0839,-0.3222 -0.1357,-1.0957 -0.0181,-0.1699 -0.0513,-0.9082 -0.084,-1.1113 -0.0141,-0.082 -0.0512,-0.1836 -0.1684,-0.1836 -0.1167,0 -0.1529,0.0801 -0.1529,0.2344 0,0.1172 -0.0151,0.4023 -0.0991,0.6055 -0.1201,0.3007 -0.2881,0.5058 -1.1294,0.6074 -0.2851,0.0293 -2.0537,0.0664 -2.3901,0.0664 -0.0879,0 -0.1167,-0.0508 -0.1167,-0.168 v -4.2617 c 0,-0.1172 0.0146,-0.1836 0.1167,-0.1836 0.3691,0 2.3061,0 2.6933,0.0313 0.4063,0.0351 0.6543,0.0878 0.8081,0.2539 0.1172,0.1328 0.1861,0.2207 0.2701,0.2207 0.0664,0 0.1172,-0.0371 0.1172,-0.1387 0,-0.0957 -0.084,-0.3672 -0.1319,-1.2285 -0.0361,-0.336 -0.0693,-1.0098 -0.0693,-1.125 0,-0.1406 0,-0.3223 -0.1499,-0.3223 -0.1201,0 -0.1533,0.0664 -0.1533,0.1543 -0.0147,0.168 -0.0147,0.3867 -0.066,0.6055 -0.0869,0.3359 -0.3217,0.5859 -0.9423,0.6582 -0.3218,0.0293 -1.9878,0.0508 -2.3941,0.0508 -0.084,0 -0.0986,-0.0723 -0.0986,-0.168 v -1.3301 c 0,-0.5762 -0.0181,-2.1269 0,-2.6172 0.0288,-1.1621 0.2998,-1.4101 2.0176,-1.4101 0.4384,0 1.1474,0 1.5859,0.1972 0.439,0.2051 0.6357,0.5625 0.7563,1.25 0.0328,0.1817 0.0699,0.2559 0.1861,0.2559 0.1318,0 0.1318,-0.1387 0.1318,-0.3066 0,-0.3887 -0.1318,-1.5352 -0.2192,-1.8711 -0.1167,-0.4395 -0.2661,-0.4395 -0.9063,-0.4395 -2.5439,0 -3.6728,0.1035 -4.6631,0.1035 -0.3872,0 -1.4506,-0.0527 -2.1269,-0.0527 -0.2158,0 -0.3359,0.0527 -0.3359,0.1699 0,0.0879 0.0688,0.1387 0.27,0.1387 0.2558,0 0.4531,0.0293 0.6064,0.0644 0.3369,0.0664 0.4243,0.4395 0.4903,0.9278 0.0839,0.7109 0.0839,2.041 0.0839,3.5898 z"
       style="fill:#231f20;fill-opacity:1;fill-rule:nonzero;stroke:none"
       id="path50" />
    <path
       d="m 296.7061,384.1084 c 0,2.5586 0,3.0352 -0.0328,3.5684 -0.0371,0.5761 -0.1684,0.8476 -0.7236,0.9648 -0.1357,0.0293 -0.4238,0.0508 -0.6582,0.0508 -0.1826,0 -0.2847,0.0293 -0.2847,0.1465 0,0.125 0.1167,0.1523 0.3692,0.1523 0.895,0 1.9541,-0.0508 2.3056,-0.0508 0.5743,0 1.8555,0.0508 2.376,0.0508 1.0596,0 2.1885,-0.1016 3.0987,-0.7226 0.4707,-0.3223 1.1474,-1.1778 1.1474,-2.3106 0,-1.2422 -0.5264,-2.3887 -2.2256,-3.7715 1.4981,-1.8847 2.6602,-3.3828 3.6543,-4.4297 0.9434,-0.9707 1.6348,-1.0879 1.8867,-1.1386 0.1856,-0.0371 0.3389,-0.0508 0.4707,-0.0508 0.1348,0 0.2051,-0.0508 0.2051,-0.1387 0,-0.1328 -0.1211,-0.1699 -0.3222,-0.1699 h -1.6006 c -0.9424,0 -1.3633,0.0879 -1.8018,0.3223 -0.7226,0.3886 -1.3633,1.1757 -2.3057,2.4785 -0.6728,0.9277 -1.4462,2.0683 -1.6669,2.3242 -0.087,0.1016 -0.1856,0.1172 -0.3067,0.1172 l -1.4619,0.0273 c -0.0879,0 -0.1357,-0.0273 -0.1357,-0.1308 v -0.2344 c 0,-1.5625 0,-2.8926 0.0849,-3.6035 0.0508,-0.4883 0.1533,-0.8614 0.6572,-0.9278 0.2491,-0.0351 0.6221,-0.0644 0.8262,-0.0644 0.1309,0 0.1973,-0.0508 0.1973,-0.1387 0,-0.1172 -0.1162,-0.1699 -0.336,-0.1699 -0.9726,0 -2.2226,0.0527 -2.4746,0.0527 -0.3183,0 -1.3774,-0.0527 -2.0537,-0.0527 -0.2187,0 -0.3359,0.0527 -0.3359,0.1699 0,0.0879 0.0698,0.1387 0.2671,0.1387 0.2558,0 0.457,0.0293 0.6064,0.0644 0.336,0.0664 0.4239,0.4395 0.4898,0.9278 0.084,0.7109 0.084,2.041 0.084,3.5898 v 2.959 m 1.9873,-1.3281 c 0,-0.1836 0.0332,-0.2559 0.1504,-0.3008 0.3544,-0.125 0.8632,-0.1758 1.2792,-0.1758 0.6758,0 0.8946,0.0742 1.1983,0.293 0.5049,0.3652 0.9941,1.1406 0.9941,2.5215 0,2.3906 -1.5849,3.0839 -2.58,3.0839 -0.4161,0 -0.7237,-0.0136 -0.8916,-0.0644 -0.1172,-0.0371 -0.1504,-0.1035 -0.1504,-0.2422 z"
       style="fill:#231f20;fill-opacity:1;fill-rule:nonzero;stroke:none"
       id="path52" />
    <path
       d="m 313.7988,384.1084 c 0,2.5586 0,3.0352 -0.0332,3.5684 -0.0332,0.5761 -0.1679,0.8476 -0.7246,0.9648 -0.1347,0.0293 -0.4199,0.0508 -0.6582,0.0508 -0.1855,0 -0.2851,0.0293 -0.2851,0.1465 0,0.125 0.1171,0.1523 0.3691,0.1523 0.8926,0 1.9531,-0.0508 2.4277,-0.0508 0.5371,0 3.8887,0 4.209,0.0235 0.3223,0.0273 0.5899,0.0644 0.7246,0.0937 0.084,0.0215 0.1817,0.0742 0.2696,0.0742 0.08,0 0.1035,-0.0742 0.1035,-0.1543 0,-0.1171 -0.0879,-0.3222 -0.1387,-1.0957 -0.0156,-0.1699 -0.0527,-0.9082 -0.0801,-1.1113 -0.0234,-0.082 -0.0527,-0.1836 -0.1679,-0.1836 -0.1211,0 -0.1543,0.0801 -0.1543,0.2344 0,0.1172 -0.0196,0.4023 -0.1016,0.6055 -0.1191,0.3007 -0.2871,0.5058 -1.127,0.6074 -0.2871,0.0293 -2.0566,0.0664 -2.3945,0.0664 -0.082,0 -0.1152,-0.0508 -0.1152,-0.168 v -4.2617 c 0,-0.1172 0.0176,-0.1836 0.1152,-0.1836 0.3692,0 2.3086,0 2.6953,0.0313 0.4043,0.0351 0.6582,0.0878 0.8106,0.2539 0.1172,0.1328 0.1836,0.2207 0.2715,0.2207 0.0644,0 0.1152,-0.0371 0.1152,-0.1387 0,-0.0957 -0.0879,-0.3672 -0.1387,-1.2285 -0.0293,-0.336 -0.0644,-1.0098 -0.0644,-1.125 0,-0.1406 0,-0.3223 -0.1504,-0.3223 -0.1211,0 -0.1504,0.0664 -0.1504,0.1543 -0.0215,0.168 -0.0215,0.3867 -0.0684,0.6055 -0.0859,0.3359 -0.3183,0.5859 -0.9433,0.6582 -0.3184,0.0293 -1.9883,0.0508 -2.3946,0.0508 -0.08,0 -0.0976,-0.0723 -0.0976,-0.168 v -1.3301 c 0,-0.5762 -0.0196,-2.1269 0,-2.6172 0.0332,-1.1621 0.3027,-1.4101 2.0215,-1.4101 0.4375,0 1.1425,0 1.582,0.1972 0.4336,0.2051 0.6387,0.5625 0.7559,1.25 0.0371,0.1817 0.0644,0.2559 0.1855,0.2559 0.1367,0 0.1367,-0.1387 0.1367,-0.3066 0,-0.3887 -0.1367,-1.5352 -0.2187,-1.8711 -0.1192,-0.4395 -0.2715,-0.4395 -0.9121,-0.4395 -2.5391,0 -3.6719,0.1035 -4.6661,0.1035 -0.3867,0 -1.4472,-0.0527 -2.1191,-0.0527 -0.2207,0 -0.3359,0.0527 -0.3359,0.1699 0,0.0879 0.0644,0.1387 0.2695,0.1387 0.2519,0 0.4531,0.0293 0.6074,0.0644 0.336,0.0664 0.416,0.4395 0.4863,0.9278 0.084,0.7109 0.084,2.041 0.084,3.5898 z"
       style="fill:#231f20;fill-opacity:1;fill-rule:nonzero;stroke:none"
       id="path54" />
    <path
       d="m 339.043,377.3916 c 0,-0.459 -0.0176,-0.4883 -0.2188,-0.6055 -1.0957,-0.5781 -2.748,-0.7597 -4.0586,-0.7597 -4.1269,0 -7.7812,1.9511 -7.7812,6.5996 0,2.6972 1.3945,4.584 2.9297,5.5117 1.6172,0.9707 3.1132,1.0879 4.5312,1.0879 1.1641,0 2.6426,-0.1973 2.9785,-0.2617 0.3555,-0.0743 0.9473,-0.17 1.3321,-0.1914 0.1992,-0.0137 0.2363,-0.0801 0.2363,-0.1973 0,-0.1895 -0.1172,-0.6582 -0.1172,-2.7617 0,-0.2715 -0.0508,-0.3594 -0.1855,-0.3594 -0.1211,0 -0.1504,0.0879 -0.1719,0.2188 -0.0488,0.3886 -0.1309,0.9296 -0.5703,1.4042 -0.5039,0.5333 -1.8535,1.3086 -3.7578,1.3086 -0.9239,0 -2.1563,-0.0664 -3.3321,-1.0468 -0.9433,-0.7871 -1.5488,-2.0528 -1.5488,-4.1211 0,-3.6172 2.3086,-6.3301 5.8613,-6.3301 0.4395,0 1.0274,0 1.4336,0.1836 0.2481,0.1172 0.3164,0.3359 0.3164,0.6211 v 1.5859 c 0,0.8399 0,1.4844 -0.0176,1.9883 -0.0156,0.5703 -0.1679,0.8398 -0.7226,0.957 -0.1328,0.0371 -0.4219,0.0508 -0.6582,0.0508 -0.1504,0 -0.25,0.0293 -0.25,0.1328 0,0.1387 0.1172,0.168 0.3515,0.168 0.877,0 1.9375,-0.0508 2.4415,-0.0508 0.5214,0 1.4179,0.0508 1.9726,0.0508 0.2188,0 0.3379,-0.0293 0.3379,-0.168 0,-0.1035 -0.1035,-0.1328 -0.2207,-0.1328 -0.1348,0 -0.2559,-0.0137 -0.4531,-0.0508 -0.4571,-0.0879 -0.625,-0.373 -0.6426,-0.957 -0.0156,-0.5039 -0.0156,-1.1836 -0.0156,-2.0254 z"
       style="fill:#231f20;fill-opacity:1;fill-rule:nonzero;stroke:none"
       id="path56" />
    <path
       d="m 348.7949,380.6592 c -0.0879,0 -0.1191,-0.0371 -0.1543,-0.1387 l -0.9101,-2.4043 c -0.17,-0.4238 -0.252,-0.8262 -0.252,-1.0312 0,-0.2989 0.1524,-0.5176 0.6719,-0.5176 h 0.2559 c 0.2011,0 0.248,-0.0371 0.248,-0.1387 0,-0.1328 -0.0977,-0.1699 -0.2852,-0.1699 -0.5371,0 -1.2636,0.0527 -1.7812,0.0527 -0.1875,0 -1.1133,-0.0527 -1.9902,-0.0527 -0.2188,0 -0.3204,0.0371 -0.3204,0.1699 0,0.1016 0.0704,0.1387 0.2032,0.1387 0.1562,0 0.3886,0.0137 0.5195,0.0293 0.7754,0.1015 1.0977,0.6797 1.4336,1.5195 l 4.2285,10.5762 c 0.2012,0.4902 0.3027,0.6719 0.4707,0.6719 0.1524,0 0.252,-0.1524 0.4199,-0.5411 0.4063,-0.9277 3.0996,-7.7968 4.1778,-10.3554 0.6386,-1.5137 1.1289,-1.7481 1.4824,-1.836 0.25,-0.0507 0.5059,-0.0644 0.707,-0.0644 0.1348,0 0.2188,-0.0156 0.2188,-0.1387 0,-0.1328 -0.1504,-0.1699 -0.7735,-0.1699 -0.6093,0 -1.8398,0 -3.1855,0.0371 -0.3027,0.0156 -0.5039,0.0156 -0.5039,0.1328 0,0.1016 0.0664,0.1387 0.2344,0.1524 0.1171,0.0371 0.2382,0.1835 0.1543,0.3886 l -1.3497,3.5723 c -0.0332,0.0801 -0.0839,0.1172 -0.1679,0.1172 h -3.752 m 3.4336,0.8418 c 0.082,0 0.0996,0.0508 0.082,0.1015 l -1.5156,4.1582 c -0.0117,0.0664 -0.0351,0.1543 -0.082,0.1543 -0.0508,0 -0.0859,-0.0879 -0.1035,-0.1543 l -1.5449,-4.1445 c -0.0215,-0.0644 0,-0.1152 0.0664,-0.1152 h 3.0976 m -2.916,9.6338 c 0,0.7734 0.9941,1.4824 2.3086,1.4824 0.9766,0 1.584,-0.4082 1.6016,-0.9785 0,-0.9434 -1.3145,-1.5147 -2.4122,-1.5147 -0.9238,0 -1.498,0.4326 -1.498,1.0108 m 1.8711,-0.5918 c 0.5566,0 1.0078,0.4004 1.0078,0.875 0,0.4023 -0.2832,0.7754 -0.8906,0.7754 -0.3867,0 -0.957,-0.2559 -0.957,-0.8262 0,-0.5039 0.4394,-0.8242 0.8398,-0.8242 z"
       style="fill:#231f20;fill-opacity:1;fill-rule:nonzero;stroke:none"
       id="path58" />
    <path
       d="m 364.2852,384.1084 c 0,2.5586 0,3.0352 -0.0332,3.5684 -0.0352,0.5761 -0.168,0.8476 -0.7227,0.9648 -0.1387,0.0293 -0.4238,0.0508 -0.6582,0.0508 -0.1856,0 -0.2852,0.0293 -0.2852,0.1465 0,0.125 0.1172,0.1523 0.3692,0.1523 0.8926,0 1.9551,-0.0508 2.4219,-0.0508 0.5429,0 3.8925,0 4.2109,0.0235 0.3223,0.0273 0.5937,0.0644 0.7226,0.0937 0.0879,0.0215 0.1875,0.0742 0.2715,0.0742 0.0879,0 0.1035,-0.0742 0.1035,-0.1543 0,-0.1171 -0.0859,-0.3222 -0.1347,-1.0957 -0.0195,-0.1699 -0.0528,-0.9082 -0.086,-1.1113 -0.0156,-0.082 -0.0507,-0.1836 -0.1679,-0.1836 -0.1153,0 -0.1543,0.0801 -0.1543,0.2344 0,0.1172 -0.0137,0.4023 -0.0977,0.6055 -0.1211,0.3007 -0.289,0.5058 -1.1289,0.6074 -0.2851,0.0293 -2.0547,0.0664 -2.3906,0.0664 -0.0879,0 -0.1172,-0.0508 -0.1172,-0.168 v -4.2617 c 0,-0.1172 0.0156,-0.1836 0.1172,-0.1836 0.3691,0 2.3066,0 2.6934,0.0313 0.4062,0.0351 0.6542,0.0878 0.8085,0.2539 0.1153,0.1328 0.1856,0.2207 0.2696,0.2207 0.0664,0 0.1172,-0.0371 0.1172,-0.1387 0,-0.0957 -0.084,-0.3672 -0.1328,-1.2285 -0.0352,-0.336 -0.0684,-1.0098 -0.0684,-1.125 0,-0.1406 0,-0.3223 -0.1504,-0.3223 -0.1211,0 -0.1523,0.0664 -0.1523,0.1543 -0.0157,0.168 -0.0157,0.3867 -0.0664,0.6055 -0.0879,0.3359 -0.3204,0.5859 -0.9434,0.6582 -0.3223,0.0293 -1.9863,0.0508 -2.3926,0.0508 -0.084,0 -0.0996,-0.0723 -0.0996,-0.168 v -1.3301 c 0,-0.5762 -0.0176,-2.1269 0,-2.6172 0.0293,-1.1621 0.3008,-1.4101 2.0176,-1.4101 0.4394,0 1.1465,0 1.5859,0.1972 0.4375,0.2051 0.6367,0.5625 0.7559,1.25 0.0332,0.1817 0.0703,0.2559 0.1875,0.2559 0.1328,0 0.1328,-0.1387 0.1328,-0.3066 0,-0.3887 -0.1328,-1.5352 -0.2207,-1.8711 -0.1172,-0.4395 -0.2676,-0.4395 -0.9063,-0.4395 -2.5449,0 -3.6718,0.1035 -4.664,0.1035 -0.3867,0 -1.4492,-0.0527 -2.127,-0.0527 -0.2148,0 -0.3359,0.0527 -0.3359,0.1699 0,0.0879 0.0703,0.1387 0.2715,0.1387 0.2558,0 0.4531,0.0293 0.6074,0.0644 0.3359,0.0664 0.4219,0.4395 0.4883,0.9278 0.084,0.7109 0.084,2.041 0.084,3.5898 z"
       style="fill:#231f20;fill-opacity:1;fill-rule:nonzero;stroke:none"
       id="path60" />
    <path
       d="m 380.248,378.5557 c 0.0333,-1.3164 0.254,-1.7559 0.5899,-1.8711 0.2871,-0.1035 0.6055,-0.1172 0.8769,-0.1172 0.1856,0 0.2832,-0.0371 0.2832,-0.1387 0,-0.1328 -0.1484,-0.1699 -0.3867,-0.1699 -1.0918,0 -1.7675,0.0527 -2.0859,0.0527 -0.1504,0 -0.9434,-0.0527 -1.8164,-0.0527 -0.2207,0 -0.3731,0.0234 -0.3731,0.1699 0,0.1016 0.1016,0.1387 0.2696,0.1387 0.2187,0 0.5195,0.0137 0.7558,0.0801 0.4395,0.1386 0.5098,0.6289 0.5235,2.0898 l 0.1543,9.9688 c 0,0.3378 0.0468,0.5703 0.2187,0.5703 0.1836,0 0.336,-0.2188 0.6211,-0.5176 0.2012,-0.2207 2.7637,-2.9688 5.2188,-5.4082 1.1484,-1.1406 3.4218,-3.5684 3.705,-3.8379 h 0.086 l -0.168,7.5644 c -0.0195,1.0235 -0.168,1.3458 -0.5762,1.5137 -0.25,0.1016 -0.6582,0.1016 -0.8906,0.1016 -0.2012,0 -0.2695,0.0508 -0.2695,0.1465 0,0.1386 0.1855,0.1523 0.4375,0.1523 0.8769,0 1.6855,-0.0508 2.039,-0.0508 0.1836,0 0.8262,0.0508 1.6524,0.0508 0.2187,0 0.3867,-0.0137 0.3867,-0.1523 0,-0.0957 -0.1016,-0.1465 -0.3066,-0.1465 -0.168,0 -0.2989,0 -0.5039,-0.0508 -0.4707,-0.1387 -0.6055,-0.4902 -0.6211,-1.4316 l -0.1856,-10.6289 c 0,-0.3731 -0.0703,-0.5176 -0.2207,-0.5176 -0.1855,0 -0.3867,0.1816 -0.5723,0.3652 -1.0605,1.0156 -3.2168,3.2149 -4.9668,4.9551 -1.8398,1.8183 -3.7031,3.9238 -4.0097,4.2383 h -0.0508 z"
       style="fill:#231f20;fill-opacity:1;fill-rule:nonzero;stroke:none"
       id="path62" />
    <path
       d="m 399.6328,384.1084 c 0,2.5586 0,3.0352 -0.0332,3.5684 -0.0371,0.5761 -0.168,0.8476 -0.7246,0.9648 -0.1387,0.0293 -0.4238,0.0508 -0.6582,0.0508 -0.1855,0 -0.2832,0.0293 -0.2832,0.1465 0,0.125 0.1152,0.1523 0.3691,0.1523 0.8907,0 1.9532,-0.0508 2.4219,-0.0508 0.5254,0 1.5859,0.0508 2.5957,0.0508 2.1035,0 4.918,0 6.7539,-1.9141 0.8379,-0.8769 1.6328,-2.2812 1.6328,-4.2832 0,-2.1191 -0.8965,-3.7343 -1.8398,-4.6992 -0.7734,-0.789 -2.5195,-1.9804 -5.6387,-1.9804 -1.2305,0 -2.7441,0.1972 -3.584,0.1972 -0.3886,0 -1.4511,-0.0527 -2.123,-0.0527 -0.2188,0 -0.3399,0.0527 -0.3399,0.1699 0,0.0879 0.0684,0.1387 0.2696,0.1387 0.2558,0 0.457,0.0293 0.6074,0.0644 0.3359,0.0664 0.4238,0.4395 0.4883,0.9278 0.0859,0.7109 0.0859,2.041 0.0859,3.5898 v 2.959 m 2.1035,-1.8477 c 0,-1.791 0.0196,-3.0839 0.0332,-3.4062 0.0176,-0.416 0.0508,-1.0977 0.1856,-1.2793 0.2168,-0.3203 0.875,-0.6719 2.2051,-0.6719 1.7168,0 2.8652,0.336 3.873,1.2129 1.082,0.9277 1.418,2.457 1.418,4.1875 0,2.1426 -0.8946,3.5234 -1.6192,4.2109 -1.5488,1.4825 -3.4687,1.6875 -4.7832,1.6875 -0.3359,0 -0.957,-0.0507 -1.0937,-0.1171 -0.1485,-0.0645 -0.1992,-0.1524 -0.1992,-0.336 -0.0196,-0.5761 -0.0196,-2.039 -0.0196,-3.3691 z"
       style="fill:#231f20;fill-opacity:1;fill-rule:nonzero;stroke:none"
       id="path64" />
    <path
       d="m 419.6074,384.1084 c 0,2.5586 0,3.0352 -0.0332,3.5684 -0.0351,0.5761 -0.1679,0.8476 -0.7246,0.9648 -0.1328,0.0293 -0.4219,0.0508 -0.6562,0.0508 -0.1817,0 -0.2852,0.0293 -0.2852,0.1465 0,0.125 0.1172,0.1523 0.3691,0.1523 0.8946,0 1.9551,-0.0508 2.4239,-0.0508 0.539,0 3.8926,0 4.209,0.0235 0.3222,0.0273 0.5918,0.0644 0.7246,0.0937 0.0859,0.0215 0.1894,0.0742 0.2695,0.0742 0.0879,0 0.1016,-0.0742 0.1016,-0.1543 0,-0.1171 -0.084,-0.3222 -0.1348,-1.0957 -0.0176,-0.1699 -0.0469,-0.9082 -0.084,-1.1113 -0.0137,-0.082 -0.0508,-0.1836 -0.168,-0.1836 -0.1171,0 -0.1523,0.0801 -0.1523,0.2344 0,0.1172 -0.0156,0.4023 -0.0996,0.6055 -0.1211,0.3007 -0.2891,0.5058 -1.1289,0.6074 -0.2852,0.0293 -2.0528,0.0664 -2.3906,0.0664 -0.084,0 -0.1172,-0.0508 -0.1172,-0.168 v -4.2617 c 0,-0.1172 0.0156,-0.1836 0.1172,-0.1836 0.373,0 2.3066,0 2.6933,0.0313 0.4063,0.0351 0.6563,0.0878 0.8086,0.2539 0.1172,0.1328 0.1856,0.2207 0.2695,0.2207 0.0664,0 0.1172,-0.0371 0.1172,-0.1387 0,-0.0957 -0.082,-0.3672 -0.1308,-1.2285 -0.0391,-0.336 -0.0703,-1.0098 -0.0703,-1.125 0,-0.1406 0,-0.3223 -0.1485,-0.3223 -0.1191,0 -0.1543,0.0664 -0.1543,0.1543 -0.0136,0.168 -0.0136,0.3867 -0.0664,0.6055 -0.0879,0.3359 -0.3222,0.5859 -0.9414,0.6582 -0.3223,0.0293 -1.9902,0.0508 -2.3906,0.0508 -0.0879,0 -0.1035,-0.0723 -0.1035,-0.168 v -1.3301 c 0,-0.5762 -0.0176,-2.1269 0,-2.6172 0.0332,-1.1621 0.3008,-1.4101 2.0175,-1.4101 0.4375,0 1.1485,0 1.586,0.1972 0.4394,0.2051 0.6406,0.5625 0.7558,1.25 0.0332,0.1817 0.0704,0.2559 0.1875,0.2559 0.1309,0 0.1309,-0.1387 0.1309,-0.3066 0,-0.3887 -0.1309,-1.5352 -0.2148,-1.8711 -0.1211,-0.4395 -0.2715,-0.4395 -0.9102,-0.4395 -2.543,0 -3.668,0.1035 -4.6621,0.1035 -0.3887,0 -1.4492,-0.0527 -2.125,-0.0527 -0.2188,0 -0.3359,0.0527 -0.3359,0.1699 0,0.0879 0.0664,0.1387 0.2675,0.1387 0.2539,0 0.4551,0.0293 0.6055,0.0644 0.3359,0.0664 0.4238,0.4395 0.4902,0.9278 0.084,0.7109 0.084,2.041 0.084,3.5898 z"
       style="fill:#231f20;fill-opacity:1;fill-rule:nonzero;stroke:none"
       id="path66" />
    <path
       d="m 443.1328,376.4639 c -0.2715,0.1172 -0.3203,0.205 -0.3203,0.5703 0,0.9277 0.0664,1.9375 0.0859,2.207 0.0137,0.2559 0.0645,0.4395 0.2012,0.4395 0.1484,0 0.168,-0.1543 0.168,-0.2852 0,-0.2187 0.0683,-0.5703 0.1484,-0.8633 0.3731,-1.2422 1.3672,-1.6953 2.4121,-1.6953 1.5137,0 2.2559,1.0235 2.2559,1.9141 0,0.8261 -0.252,1.623 -1.6485,2.6972 l -0.7753,0.6075 c -1.8555,1.4472 -2.4922,2.623 -2.4922,3.9902 0,1.8496 1.5508,3.1797 3.8886,3.1797 1.0977,0 1.8008,-0.168 2.2403,-0.2852 0.1504,-0.0293 0.2383,-0.08 0.2383,-0.1972 0,-0.2188 -0.0704,-0.709 -0.0704,-2.0235 0,-0.373 -0.0507,-0.5058 -0.1855,-0.5058 -0.1172,0 -0.168,0.1035 -0.168,0.3007 0,0.1524 -0.0859,0.6797 -0.4394,1.1172 -0.252,0.3145 -0.7383,0.8184 -1.834,0.8184 -1.2481,0 -2.0039,-0.7227 -2.0039,-1.7305 0,-0.7754 0.3867,-1.3593 1.7832,-2.4277 l 0.4726,-0.3516 c 2.0215,-1.5625 2.7618,-2.6953 2.7618,-4.2968 0,-0.9727 -0.3692,-2.1348 -1.5821,-2.9239 -0.8398,-0.541 -1.7832,-0.6933 -2.6797,-0.6933 -0.9746,0 -1.7343,0.1172 -2.457,0.4375 z"
       style="fill:#231f20;fill-opacity:1;fill-rule:nonzero;stroke:none"
       id="path68" />
    <path
       d="m 460.293,383.3701 h 0.084 c 0.5742,0.6231 3.0293,3.1289 3.5195,3.707 0.4707,0.5547 0.8398,0.9727 0.8398,1.2579 0,0.1894 -0.0644,0.3066 -0.2324,0.3359 -0.1543,0.0352 -0.2187,0.0723 -0.2187,0.168 0,0.125 0.082,0.1523 0.2695,0.1523 0.3516,0 1.2793,-0.0508 1.7324,-0.0508 0.5215,0 1.4473,0.0508 1.9727,0.0508 0.1679,0 0.2851,-0.0273 0.2851,-0.1523 0,-0.1172 -0.0859,-0.1465 -0.2558,-0.1465 -0.2325,0 -0.6543,-0.0742 -0.9707,-0.1895 -0.5274,-0.1972 -1.0977,-0.5566 -1.8204,-1.2578 -0.5234,-0.5117 -3.0664,-3.0332 -3.6406,-3.6387 0.6074,-0.791 3.9102,-4.3496 4.5645,-4.9707 0.7422,-0.7089 1.5019,-1.4628 2.4082,-1.8203 0.5039,-0.1972 0.8418,-0.248 1.0449,-0.248 0.1172,0 0.2207,-0.0371 0.2207,-0.1387 0,-0.1172 -0.0879,-0.1699 -0.4062,-0.1699 h -1.4668 c -0.502,0 -0.8067,0 -1.1602,0.0371 -0.9062,0.0801 -1.3633,0.4531 -2.0879,1.0957 -0.7422,0.6582 -4.0586,4.5469 -4.4101,5.0371 l -0.1875,0.2481 h -0.084 v -1.5274 c 0,-1.5488 0,-2.8789 0.0527,-3.6113 0.0313,-0.4668 0.1816,-0.8399 0.6055,-0.9063 0.2324,-0.0351 0.6074,-0.0644 0.8261,-0.0644 0.1329,0 0.2149,-0.0508 0.2149,-0.1387 0,-0.1172 -0.1348,-0.1699 -0.3184,-0.1699 -0.9414,0 -2.0019,0.0527 -2.4258,0.0527 -0.3867,0 -1.4472,-0.0527 -2.1191,-0.0527 -0.2187,0 -0.3359,0.0527 -0.3359,0.1699 0,0.0879 0.0644,0.1387 0.2656,0.1387 0.2539,0 0.457,0.0293 0.6074,0.0644 0.336,0.0664 0.4199,0.4395 0.4863,0.9278 0.086,0.7109 0.086,2.041 0.086,3.5898 v 2.959 c 0,2.5586 0,3.0352 -0.0352,3.5684 -0.0332,0.5761 -0.1679,0.8476 -0.7226,0.9648 -0.1328,0.0293 -0.4219,0.0508 -0.6582,0.0508 -0.1836,0 -0.2852,0.0293 -0.2852,0.1465 0,0.125 0.1172,0.1523 0.3731,0.1523 0.8906,0 1.9511,-0.0508 2.3535,-0.0508 0.4082,0 1.4687,0.0508 2.039,0.0508 0.2383,0 0.3536,-0.0273 0.3536,-0.1523 0,-0.1172 -0.0977,-0.1465 -0.2364,-0.1465 -0.1679,0 -0.2676,-0.0215 -0.4687,-0.0508 -0.4571,-0.0879 -0.5918,-0.373 -0.625,-0.9648 -0.0332,-0.5332 -0.0332,-1.0098 -0.0332,-3.5684 z"
       style="fill:#231f20;fill-opacity:1;fill-rule:nonzero;stroke:none"
       id="path70" />
    <path
       d="m 473.7637,382.626 c 0,2.8789 1.9004,6.5996 6.9531,6.5996 4.1934,0 6.8027,-2.4414 6.8027,-6.293 0,-3.8594 -2.6894,-6.9062 -6.9687,-6.9062 -4.836,0 -6.7871,3.6172 -6.7871,6.5996 m 11.4023,-0.3223 c 0,3.7793 -2.1738,6.1192 -4.9336,6.1192 -1.9375,0 -4.1445,-1.084 -4.1445,-5.2696 0,-3.5097 1.9375,-6.2871 5.168,-6.2871 1.1796,0 3.9101,0.5781 3.9101,5.4375 z"
       style="fill:#231f20;fill-opacity:1;fill-rule:nonzero;stroke:none"
       id="path72" />
    <path
       d="m 497.5254,381.1494 c 0,-2.1562 0,-3.3183 0.3574,-3.625 0.2871,-0.248 0.7246,-0.373 2.0371,-0.373 0.8946,0 1.5489,0.0215 1.9688,0.4746 0.2051,0.2187 0.4062,0.6875 0.4394,1.0097 0.0137,0.1524 0.0508,0.2559 0.1836,0.2559 0.1192,0 0.1367,-0.0879 0.1367,-0.2852 0,-0.1914 -0.1152,-1.455 -0.2558,-1.9375 -0.0977,-0.373 -0.1817,-0.4609 -1.0586,-0.4609 -2.4258,0 -3.5391,0.1035 -4.9004,0.1035 -0.3887,0 -1.4473,-0.0527 -2.1231,-0.0527 -0.2187,0 -0.3378,0.0527 -0.3378,0.1699 0,0.0879 0.0703,0.1387 0.2714,0.1387 0.2559,0 0.4532,0.0293 0.6055,0.0644 0.3359,0.0664 0.4238,0.4395 0.4902,0.9278 0.0801,0.7109 0.0801,2.041 0.0801,3.5898 v 2.959 c 0,2.5586 0,3.0352 -0.0273,3.5684 -0.0371,0.5761 -0.168,0.8476 -0.7246,0.9648 -0.1387,0.0293 -0.3399,0.0508 -0.5567,0.0508 -0.1875,0 -0.289,0.0293 -0.289,0.1465 0,0.125 0.1191,0.1523 0.3691,0.1523 0.7949,0 1.8535,-0.0508 2.3106,-0.0508 0.4023,0 1.6308,0.0508 2.2871,0.0508 0.2382,0 0.3554,-0.0273 0.3554,-0.1523 0,-0.1172 -0.0996,-0.1465 -0.3027,-0.1465 -0.1836,0 -0.4531,-0.0215 -0.6582,-0.0508 -0.4531,-0.0879 -0.5898,-0.373 -0.6211,-0.9648 -0.0371,-0.5332 -0.0371,-1.0098 -0.0371,-3.5684 z"
       style="fill:#231f20;fill-opacity:1;fill-rule:nonzero;stroke:none"
       id="path74" />
    <path
       d="m 509.9883,384.1084 c 0,2.5586 0,3.0352 -0.0293,3.5684 -0.0371,0.5761 -0.168,0.8476 -0.7246,0.9648 -0.1387,0.0293 -0.4239,0.0508 -0.6563,0.0508 -0.1875,0 -0.289,0.0293 -0.289,0.1465 0,0.125 0.1211,0.1523 0.3691,0.1523 0.8945,0 1.9531,-0.0508 2.4258,-0.0508 0.541,0 3.8887,0 4.2109,0.0235 0.3203,0.0273 0.5899,0.0644 0.7227,0.0937 0.0879,0.0215 0.1855,0.0742 0.2715,0.0742 0.082,0 0.0996,-0.0742 0.0996,-0.1543 0,-0.1171 -0.086,-0.3222 -0.1348,-1.0957 -0.0176,-0.1699 -0.0508,-0.9082 -0.082,-1.1113 -0.0176,-0.082 -0.0508,-0.1836 -0.1699,-0.1836 -0.1172,0 -0.1524,0.0801 -0.1524,0.2344 0,0.1172 -0.0156,0.4023 -0.1035,0.6055 -0.1152,0.3007 -0.2832,0.5058 -1.125,0.6074 -0.2852,0.0293 -2.0527,0.0664 -2.3906,0.0664 -0.0879,0 -0.1153,-0.0508 -0.1153,-0.168 v -4.2617 c 0,-0.1172 0.0137,-0.1836 0.1153,-0.1836 0.3691,0 2.3066,0 2.6953,0.0313 0.4043,0.0351 0.6523,0.0878 0.8066,0.2539 0.1172,0.1328 0.1817,0.2207 0.2696,0.2207 0.0664,0 0.1191,-0.0371 0.1191,-0.1387 0,-0.0957 -0.0859,-0.3672 -0.1367,-1.2285 -0.0313,-0.336 -0.0703,-1.0098 -0.0703,-1.125 0,-0.1406 0,-0.3223 -0.1485,-0.3223 -0.1172,0 -0.1504,0.0664 -0.1504,0.1543 -0.0175,0.168 -0.0175,0.3867 -0.0644,0.6055 -0.0879,0.3359 -0.3223,0.5859 -0.9473,0.6582 -0.3183,0.0293 -1.9863,0.0508 -2.3906,0.0508 -0.084,0 -0.0977,-0.0723 -0.0977,-0.168 v -1.3301 c 0,-0.5762 -0.0214,-2.1269 0,-2.6172 0.0274,-1.1621 0.2989,-1.4101 2.0176,-1.4101 0.4375,0 1.1465,0 1.586,0.1972 0.4355,0.2051 0.6347,0.5625 0.7519,1.25 0.0371,0.1817 0.0703,0.2559 0.1895,0.2559 0.1308,0 0.1308,-0.1387 0.1308,-0.3066 0,-0.3887 -0.1308,-1.5352 -0.2187,-1.8711 -0.1172,-0.4395 -0.2696,-0.4395 -0.9063,-0.4395 -2.543,0 -3.6719,0.1035 -4.666,0.1035 -0.3887,0 -1.4473,-0.0527 -2.123,-0.0527 -0.2188,0 -0.336,0.0527 -0.336,0.1699 0,0.0879 0.0684,0.1387 0.2695,0.1387 0.252,0 0.4532,0.0293 0.6075,0.0644 0.3359,0.0664 0.4199,0.4395 0.4883,0.9278 0.082,0.7109 0.082,2.041 0.082,3.5898 z"
       style="fill:#231f20;fill-opacity:1;fill-rule:nonzero;stroke:none"
       id="path76" />
    <path
       d="m 219.7559,475.564 c -10.7564,-2.1338 -21.1631,-4.2901 -36.4991,-7.5938 -1.895,0.6875 -7.9453,3.8223 -12.809,7.8574 -8.5118,-1.9443 -17.9581,-6.7392 -20.107,-9.1074 -2.9956,-3.2822 -1.8589,-6.3437 -1.0947,-7.3818 v 0 c 2.8447,-3.4209 13.0796,-4.6192 26.7129,-0.9951 13.2104,3.5156 32.9819,8.7714 44.7915,11.7031 12.2129,3.0254 65.2324,16.3721 113.2495,-7.6309 -48.9888,24.4922 -103.2104,15.3418 -114.2441,13.1485 z"
       style="fill:#231f20;fill-opacity:1;fill-rule:nonzero;stroke:none"
       id="path78" />
    <path
       d="m 211.8442,522.1069 c -6.5273,0 -11.8349,-5.3027 -11.8349,-11.834 0,-6.5253 5.3076,-11.832 11.8349,-11.832 6.5269,0 11.8389,5.3067 11.8389,11.832 0,6.5313 -5.312,11.834 -11.8389,11.834 z"
       style="fill:#231f20;fill-opacity:1;fill-rule:nonzero;stroke:none"
       id="path80" />
    <path
       d="m 183.3242,469.9214 c 17.5928,3.2461 42.7857,10.6494 64.5205,10.5986 6.3448,7.2217 10.6714,17.1397 10.6714,26.8731 0,11.5673 -5.248,22.4287 -14.7822,30.5849 -0.2744,0.2383 -0.6841,0.2442 -0.9653,0.0108 -0.2881,-0.2217 -0.3692,-0.6172 -0.2012,-0.9385 2.2368,-4.1953 3.3628,-8.666 3.3628,-13.2852 0,-0.5332 -0.0152,-1.0664 -0.0435,-1.5927 -1.6455,8.0283 -5.1313,15.4033 -10.23,21.4008 -0.2373,0.2852 -0.6464,0.3433 -0.9677,0.1602 -0.315,-0.1934 -0.4532,-0.5806 -0.315,-0.9243 1.7178,-4.4473 2.5952,-9.1904 2.5952,-14.0908 0,-18.7227 -12.8823,-33.9454 -28.7099,-33.9454 -15.8296,0 -28.708,15.2227 -28.708,33.9454 0,4.9004 0.8696,9.6435 2.5966,14.0908 0.1294,0.3437 -0.004,0.7309 -0.3222,0.9243 -0.3213,0.1831 -0.7256,0.125 -0.9668,-0.1602 -5.0933,-5.9975 -8.582,-13.3647 -10.2251,-21.3979 -0.0308,0.5342 -0.0488,1.0566 -0.0488,1.5898 0,4.6192 1.1294,9.0821 3.3598,13.2852 0.1699,0.3213 0.0879,0.7168 -0.1938,0.9463 -0.2866,0.2256 -0.6958,0.2197 -0.9702,-0.0186 -9.5347,-8.164 -14.7788,-19.0215 -14.7788,-30.5849 0,-16.0196 10.2094,-30.0166 25.3222,-37.4717 z"
       style="fill:#231f20;fill-opacity:1;fill-rule:nonzero;stroke:none"
       id="path82" />
    <path
       d="m 194.2002,549.7749 c 0,-1.6445 -1.3374,-2.9824 -2.9863,-2.9824 -1.6455,0 -2.98,1.3379 -2.98,2.9824 0,1.6519 1.3345,2.978 2.98,2.978 1.6489,0 2.9863,-1.3261 2.9863,-2.978 z"
       style="fill:#231f20;fill-opacity:1;fill-rule:nonzero;stroke:none"
       id="path84" />
    <path
       d="m 211.2466,553.5503 c 0,-1.6416 -1.336,-2.9751 -2.982,-2.9751 -1.6479,0 -2.9799,1.3335 -2.9799,2.9751 0,1.6518 1.332,2.9853 2.9799,2.9853 1.646,0 2.982,-1.3335 2.982,-2.9853 z"
       style="fill:#231f20;fill-opacity:1;fill-rule:nonzero;stroke:none"
       id="path86" />
    <path
       d="m 227.981,550.7871 c 0,-1.6587 -1.3394,-2.9853 -2.9864,-2.9853 -1.6479,0 -2.9853,1.3266 -2.9853,2.9853 0,1.6406 1.3374,2.9785 2.9853,2.9785 1.647,0 2.9864,-1.3379 2.9864,-2.9785 z"
       style="fill:#231f20;fill-opacity:1;fill-rule:nonzero;stroke:none"
       id="path88" />
    <path
       d="m 109.8135,439.1187 h 10.3808 c 10.9786,0 19.9629,-7.8047 19.9629,-17.4971 0,-9.6431 -8.9843,-17.4478 -19.9629,-17.4478 -1,0 -10.3808,0 -10.3808,0 v 34.9449 m 7.3857,-29.1265 h 2.9951 c 6.4536,0 11.7788,5.2402 11.7788,11.6294 0,6.4424 -5.3252,11.6826 -11.7788,11.6826 -1.1987,0 -2.9951,0 -2.9951,0 z"
       style="fill:#00adef;fill-opacity:1;fill-rule:nonzero;stroke:none"
       id="path90" />
    <path
       d="m 196.0527,404.1738 h -9.0503 l -10.6455,11.6367 c -1.7978,0 -5.458,0 -5.458,0 v -11.6367 h -7.3857 v 34.9449 h 14.0405 c 8.1192,0 14.7739,-5.2403 14.7739,-11.6827 0,-4.4521 -3.1943,-8.434 -8.0527,-10.3208 l 11.7778,-12.9414 m -11.1128,23.2622 c 0,3.2491 -3.3276,5.8682 -7.3862,5.8682 -0.7324,0 -6.6548,0 -6.6548,0 v -11.6826 h 6.6548 c 4.0586,0 7.3862,2.6201 7.3862,5.8144 z"
       style="fill:#00adef;fill-opacity:1;fill-rule:nonzero;stroke:none"
       id="path92" />
    <path
       d="m 247.5581,421.6216 c 0,-9.9048 -5.5898,-18.0259 -15.5718,-18.0259 -5.9902,0 -10.3149,2.8867 -12.9096,7.3887 l -5.9224,-3.6172 -3.3276,3.5156 7.4536,4.502 c -0.5332,1.9941 -0.7989,4.0879 -0.7989,6.2368 0,9.9004 5.5225,18.0752 15.5049,18.0752 5.9898,0 10.3809,-2.9346 12.9751,-7.3897 l 3.9248,2.4424 3.3277,-3.5127 -5.522,-3.3799 c 0.5332,-1.9922 0.8662,-4.0859 0.8662,-6.2353 m -9.1182,6.706 c -1.3955,3.3008 -3.791,5.5508 -6.4536,5.5508 -4.1919,0 -7.6528,-5.5508 -7.6528,-12.2568 0,-0.6279 0,-1.2569 0.0659,-1.8345 l 14.0405,8.5405 m -12.8413,-13.3588 c 1.3975,-3.3555 3.7251,-5.5547 6.3877,-5.5547 4.2593,0 7.7183,5.5547 7.7183,12.2075 0,0.6797 0,1.3086 -0.0659,1.8857 z"
       style="fill:#00adef;fill-opacity:1;fill-rule:nonzero;stroke:none"
       id="path94" />
    <path
       d="m 300.8574,404.1738 v 21.062 l -10.7109,-15.8217 h -1.4658 l -10.7115,15.8217 v -21.062 h -7.0537 v 34.9449 h 6.0523 l 12.4472,-18.3887 12.4405,18.3887 h 6.0586 v -34.9449 z"
       style="fill:#00adef;fill-opacity:1;fill-rule:nonzero;stroke:none"
       id="path96" />
    <path
       d="m 326.8086,433.3042 v 5.8145 h 32.5391 v -5.8145 h -12.5743 v -29.1304 h -7.3867 v 29.1304 z"
       style="fill:#00adef;fill-opacity:1;fill-rule:nonzero;stroke:none"
       id="path98" />
    <path
       d="m 393.0859,439.6968 c 9.9844,0 15.5723,-8.1748 15.5723,-18.0752 0,-9.9048 -5.5879,-18.0259 -15.5723,-18.0259 -9.9804,0 -15.5019,8.1211 -15.5019,18.0259 0,9.9004 5.5215,18.0752 15.5019,18.0752 m 0,-30.2827 c 4.9922,0 7.7188,5.5547 7.7188,12.2075 0,6.706 -2.7266,12.2568 -7.7188,12.2568 -4.9218,0 -7.6523,-5.5508 -7.6523,-12.2568 0,-6.6528 2.7305,-12.2075 7.6523,-12.2075 z"
       style="fill:#00adef;fill-opacity:1;fill-rule:nonzero;stroke:none"
       id="path100" />
    <path
       d="m 464.5547,404.1738 h -9.0488 l -10.6485,11.6367 c -1.7949,0 -5.4531,0 -5.4531,0 v -11.6367 h -7.3887 v 34.9449 h 14.0391 c 8.1211,0 14.7734,-5.2403 14.7734,-11.6827 0,-4.4521 -3.1953,-8.434 -8.0488,-10.3208 l 11.7754,-12.9414 m -11.1094,23.2622 c 0,3.2491 -3.3301,5.8682 -7.3906,5.8682 -0.7305,0 -6.6504,0 -6.6504,0 v -11.6826 h 6.6504 c 4.0605,0 7.3906,2.6201 7.3906,5.8144 z"
       style="fill:#00adef;fill-opacity:1;fill-rule:nonzero;stroke:none"
       id="path102" />
    <path
       d="m 516.791,427.436 c 0,-6.3916 -6.6543,-11.6255 -14.7695,-11.6255 -0.666,0 -8.918,0 -8.918,0 v -11.6367 h -7.3887 v 34.9449 h 16.3067 c 8.1152,0 14.7695,-5.2403 14.7695,-11.6827 m -7.3867,0 c 0,3.2491 -3.3281,5.8682 -7.3828,5.8682 -0.8008,0 -8.918,0 -8.918,0 v -11.6826 h 8.918 c 4.0547,0 7.3828,2.6201 7.3828,5.8144 z"
       style="fill:#00adef;fill-opacity:1;fill-rule:nonzero;stroke:none"
       id="path104" />
    <path
       d="m 109.8135,439.1187 h 10.3808 c 10.9786,0 19.9629,-7.8047 19.9629,-17.4971 0,-9.6431 -8.9843,-17.4478 -19.9629,-17.4478 -1,0 -10.3808,0 -10.3808,0 v 34.9449 m 7.3857,-29.1265 h 2.9951 c 6.4536,0 11.7788,5.2402 11.7788,11.6294 0,6.4424 -5.3252,11.6826 -11.7788,11.6826 -1.1987,0 -2.9951,0 -2.9951,0 z"
       style="fill:#231f20;fill-opacity:1;fill-rule:nonzero;stroke:none"
       id="path106" />
    <path
       d="m 196.0527,404.1738 h -9.0503 l -10.6455,11.6367 c -1.7978,0 -5.458,0 -5.458,0 v -11.6367 h -7.3857 v 34.9449 h 14.0405 c 8.1192,0 14.7739,-5.2403 14.7739,-11.6827 0,-4.4521 -3.1943,-8.434 -8.0527,-10.3208 l 11.7778,-12.9414 m -11.1128,23.2622 c 0,3.2491 -3.3276,5.8682 -7.3862,5.8682 -0.7324,0 -6.6548,0 -6.6548,0 v -11.6826 h 6.6548 c 4.0586,0 7.3862,2.6201 7.3862,5.8144 z"
       style="fill:#231f20;fill-opacity:1;fill-rule:nonzero;stroke:none"
       id="path108" />
    <path
       d="m 247.5581,421.6216 c 0,-9.9048 -5.5898,-18.0259 -15.5718,-18.0259 -5.9902,0 -10.3149,2.8867 -12.9096,7.3887 l -5.9224,-3.6172 -3.3276,3.5156 7.4536,4.502 c -0.5332,1.9941 -0.7989,4.0879 -0.7989,6.2368 0,9.9004 5.5225,18.0752 15.5049,18.0752 5.9898,0 10.3809,-2.9346 12.9751,-7.3897 l 3.9248,2.4424 3.3277,-3.5127 -5.522,-3.3799 c 0.5332,-1.9922 0.8662,-4.0859 0.8662,-6.2353 m -9.1182,6.706 c -1.3955,3.3008 -3.791,5.5508 -6.4536,5.5508 -4.1919,0 -7.6528,-5.5508 -7.6528,-12.2568 0,-0.6279 0,-1.2569 0.0659,-1.8345 l 14.0405,8.5405 m -12.8413,-13.3588 c 1.3975,-3.3555 3.7251,-5.5547 6.3877,-5.5547 4.2593,0 7.7183,5.5547 7.7183,12.2075 0,0.6797 0,1.3086 -0.0659,1.8857 z"
       style="fill:#231f20;fill-opacity:1;fill-rule:nonzero;stroke:none"
       id="path110" />
    <path
       d="m 300.8574,404.1738 v 21.062 l -10.7109,-15.8217 h -1.4658 l -10.7115,15.8217 v -21.062 h -7.0537 v 34.9449 h 6.0523 l 12.4472,-18.3887 12.4405,18.3887 h 6.0586 v -34.9449 z"
       style="fill:#231f20;fill-opacity:1;fill-rule:nonzero;stroke:none"
       id="path112" />
    <path
       d="m 326.8086,433.3042 v 5.8145 h 32.5391 v -5.8145 h -12.5743 v -29.1304 h -7.3867 v 29.1304 z"
       style="fill:#231f20;fill-opacity:1;fill-rule:nonzero;stroke:none"
       id="path114" />
    <path
       d="m 393.0859,439.6968 c 9.9844,0 15.5723,-8.1748 15.5723,-18.0752 0,-9.9048 -5.5879,-18.0259 -15.5723,-18.0259 -9.9804,0 -15.5019,8.1211 -15.5019,18.0259 0,9.9004 5.5215,18.0752 15.5019,18.0752 m 0,-30.2827 c 4.9922,0 7.7188,5.5547 7.7188,12.2075 0,6.706 -2.7266,12.2568 -7.7188,12.2568 -4.9218,0 -7.6523,-5.5508 -7.6523,-12.2568 0,-6.6528 2.7305,-12.2075 7.6523,-12.2075 z"
       style="fill:#231f20;fill-opacity:1;fill-rule:nonzero;stroke:none"
       id="path116" />
    <path
       d="m 464.5547,404.1738 h -9.0488 l -10.6485,11.6367 c -1.7949,0 -5.4531,0 -5.4531,0 v -11.6367 h -7.3887 v 34.9449 h 14.0391 c 8.1211,0 14.7734,-5.2403 14.7734,-11.6827 0,-4.4521 -3.1953,-8.434 -8.0488,-10.3208 l 11.7754,-12.9414 m -11.1094,23.2622 c 0,3.2491 -3.3301,5.8682 -7.3906,5.8682 -0.7305,0 -6.6504,0 -6.6504,0 v -11.6826 h 6.6504 c 4.0605,0 7.3906,2.6201 7.3906,5.8144 z"
       style="fill:#231f20;fill-opacity:1;fill-rule:nonzero;stroke:none"
       id="path118" />
    <path
       d="m 516.791,427.436 c 0,-6.3916 -6.6543,-11.6255 -14.7695,-11.6255 -0.666,0 -8.918,0 -8.918,0 v -11.6367 h -7.3887 v 34.9449 h 16.3067 c 8.1152,0 14.7695,-5.2403 14.7695,-11.6827 m -7.3867,0 c 0,3.2491 -3.3281,5.8682 -7.3828,5.8682 -0.8008,0 -8.918,0 -8.918,0 v -11.6826 h 8.918 c 4.0547,0 7.3828,2.6201 7.3828,5.8144 z"
       style="fill:#231f20;fill-opacity:1;fill-rule:nonzero;stroke:none"
       id="path120" />
  </g>
</svg>
